<svg id="drawing3" stroke="black" stroke-width="1px" width="471" height="810" viewBox="0 0 471 810" fill="none" xmlns="http://www.w3.org/2000/svg">
<path d="M454 553H17C12.4929 552.996 8.17182 551.725 4.9848 549.464C1.79778 547.203 0.00507123 544.138 0 540.941V194.059C0.00507387 190.862 1.79778 187.797 4.9848 185.536C8.17182 183.275 12.4929 182.004 17 182H454C458.507 182.004 462.828 183.275 466.015 185.536C469.202 187.797 470.995 190.862 471 194.059V540.941C470.995 544.138 469.202 547.203 466.015 549.464C462.828 551.725 458.507 552.996 454 553V553ZM17 183.419C13.0231 183.422 9.21045 184.544 6.39838 186.539C3.58631 188.534 2.0045 191.238 2 194.059V540.941C2.0045 543.762 3.58631 546.466 6.39838 548.461C9.21045 550.456 13.0231 551.578 17 551.581H454C457.977 551.578 461.79 550.456 464.602 548.461C467.414 546.466 468.996 543.762 469 540.941V194.059C468.996 191.238 467.414 188.534 464.602 186.539C461.79 184.544 457.977 183.422 454 183.419H17Z" fill="#3F3D56"/>
<path d="M470 223.59H1V225.59H470V223.59Z" fill="#3F3D56"/>
<path d="M24 212C28.4183 212 32 208.418 32 204C32 199.582 28.4183 196 24 196C19.5817 196 16 199.582 16 204C16 208.418 19.5817 212 24 212Z" fill="#6C63FF"/>
<path d="M49 212C53.4183 212 57 208.418 57 204C57 199.582 53.4183 196 49 196C44.5817 196 41 199.582 41 204C41 208.418 44.5817 212 49 212Z" fill="#6C63FF"/>
<path d="M74 212C78.4183 212 82 208.418 82 204C82 199.582 78.4183 196 74 196C69.5817 196 66 199.582 66 204C66 208.418 69.5817 212 74 212Z" fill="#6C63FF"/>
<path d="M348.654 274H36.6536C33.2057 274 29.8992 272.63 27.4612 270.192C25.0232 267.754 23.6536 264.448 23.6536 261C23.6536 257.552 25.0232 254.246 27.4612 251.808C29.8992 249.37 33.2057 248 36.6536 248H348.654C352.101 248 355.408 249.37 357.846 251.808C360.284 254.246 361.654 257.552 361.654 261C361.654 264.448 360.284 267.754 357.846 270.192C355.408 272.63 352.101 274 348.654 274V274ZM36.6536 250C33.7362 250 30.9383 251.159 28.8754 253.222C26.8125 255.285 25.6536 258.083 25.6536 261C25.6536 263.917 26.8125 266.715 28.8754 268.778C30.9383 270.841 33.7362 272 36.6536 272H348.654C351.571 272 354.369 270.841 356.432 268.778C358.495 266.715 359.654 263.917 359.654 261C359.654 258.083 358.495 255.285 356.432 253.222C354.369 251.159 351.571 250 348.654 250H36.6536Z" fill="#6C63FF"/>
<path d="M444.154 284H401.154C398.635 283.997 396.22 282.995 394.439 281.214C392.658 279.433 391.656 277.019 391.654 274.5V247.5C391.656 244.981 392.658 242.567 394.439 240.786C396.22 239.005 398.635 238.003 401.154 238H444.154C446.672 238.003 449.087 239.005 450.868 240.786C452.649 242.567 453.651 244.981 453.654 247.5V274.5C453.651 277.019 452.649 279.433 450.868 281.214C449.087 282.995 446.672 283.997 444.154 284V284ZM401.154 240C399.165 240.002 397.259 240.793 395.853 242.199C394.447 243.605 393.656 245.512 393.654 247.5V274.5C393.656 276.488 394.447 278.395 395.853 279.801C397.259 281.207 399.165 281.998 401.154 282H444.154C446.142 281.998 448.048 281.207 449.454 279.801C450.86 278.395 451.651 276.488 451.654 274.5V247.5C451.651 245.512 450.86 243.605 449.454 242.199C448.048 240.793 446.142 240.002 444.154 240H401.154Z" fill="#CCCCCC"/>
<path d="M422.653 275.739L420.338 273.65C412.115 266.1 406.687 261.201 406.687 255.097C406.667 253.935 406.879 252.782 407.313 251.704C407.746 250.627 408.391 249.647 409.21 248.823C410.029 247.999 411.005 247.348 412.08 246.908C413.155 246.468 414.307 246.248 415.468 246.262C416.839 246.269 418.192 246.575 419.432 247.157C420.673 247.74 421.772 248.585 422.653 249.635C423.535 248.585 424.634 247.74 425.874 247.157C427.115 246.575 428.468 246.269 429.838 246.262C431 246.248 432.152 246.468 433.227 246.908C434.302 247.348 435.278 247.999 436.097 248.823C436.915 249.647 437.561 250.627 437.994 251.704C438.428 252.782 438.64 253.935 438.62 255.097C438.62 261.201 433.191 266.1 424.969 273.65L422.653 275.739Z" fill="#6C63FF"/>
<g clip-path="url(#clip0)">
<path d="M151.705 3.62332L150.677 3.10864L147.891 8.64815L148.92 9.16283L151.705 3.62332Z" fill="white"/>
<path d="M160.15 16.2712C154.616 10.7501 147.111 7.64844 139.285 7.64844C131.459 7.64844 123.954 10.7501 118.421 16.2712L118.413 16.2792C112.853 10.895 105.394 7.90906 97.647 7.96649C89.8996 8.02391 82.4858 11.1201 77.0074 16.5861C71.529 22.0521 68.4258 29.4492 68.3682 37.1791C68.3107 44.909 71.3034 52.3512 76.6998 57.8978L76.6918 57.9058L118.421 99.5403L160.15 57.9058C162.889 55.172 165.063 51.9266 166.546 48.3547C168.029 44.7829 168.792 40.9546 168.792 37.0885C168.792 33.2224 168.029 29.3941 166.546 25.8223C165.063 22.2504 162.889 19.005 160.15 16.2712V16.2712Z" fill="#FF6584"/>
<path d="M286.423 182.641H67.5012C67.2271 182.645 66.9532 182.623 66.6831 182.576L170.223 3.63559C170.855 2.52117 171.772 1.59408 172.881 0.949039C173.989 0.303995 175.25 -0.0358887 176.533 -0.0358887C177.816 -0.0358887 179.076 0.303995 180.185 0.949039C181.294 1.59408 182.211 2.52117 182.843 3.63559L252.331 123.719L255.66 129.465L286.423 182.641Z" fill="#6C63FF"/>
<path opacity="0.2" d="M286.423 182.641H211.677L248.37 129.464L251.01 125.634L252.331 123.719L255.66 129.464L286.423 182.641Z" fill="black"/>
<path d="M408.317 182.439H218.968L255.66 129.263L258.3 125.432L306.113 56.1333C309.248 51.5915 316.789 51.3087 320.474 55.2767C320.722 55.5473 320.952 55.8335 321.163 56.1333L408.317 182.439Z" fill="#3F3D56"/>
<path d="M436 181.963H39V182.963H436V181.963Z" fill="#3F3D56"/>
<path d="M225.753 171.007C233.199 168.129 238.502 163.905 237.596 161.572C236.69 159.24 229.92 159.682 222.474 162.561C215.027 165.439 209.725 169.663 210.63 171.995C211.536 174.327 218.307 173.885 225.753 171.007Z" fill="#2F2E41"/>
<path d="M195.149 199.582C211.12 199.582 224.067 186.664 224.067 170.729C224.067 154.794 211.12 141.876 195.149 141.876C179.178 141.876 166.23 154.794 166.23 170.729C166.23 186.664 179.178 199.582 195.149 199.582Z" fill="#2F2E41"/>
<path d="M190.756 193.374H181.971V209.078H190.756V193.374Z" fill="#2F2E41"/>
<path d="M208.327 193.374H199.542V209.078H208.327V193.374Z" fill="#2F2E41"/>
<path d="M189.292 212C193.335 212 196.613 210.774 196.613 209.261C196.613 207.748 193.335 206.522 189.292 206.522C185.248 206.522 181.971 207.748 181.971 209.261C181.971 210.774 185.248 212 189.292 212Z" fill="#2F2E41"/>
<path d="M206.863 211.635C210.906 211.635 214.184 210.408 214.184 208.895C214.184 207.383 210.906 206.156 206.863 206.156C202.819 206.156 199.542 207.383 199.542 208.895C199.542 210.408 202.819 211.635 206.863 211.635Z" fill="#2F2E41"/>
<path d="M195.881 173.286C201.339 173.286 205.764 168.871 205.764 163.425C205.764 157.978 201.339 153.563 195.881 153.563C190.422 153.563 185.997 157.978 185.997 163.425C185.997 168.871 190.422 173.286 195.881 173.286Z" fill="white"/>
<path d="M195.881 166.712C197.7 166.712 199.175 165.24 199.175 163.425C199.175 161.609 197.7 160.138 195.881 160.138C194.061 160.138 192.586 161.609 192.586 163.425C192.586 165.24 194.061 166.712 195.881 166.712Z" fill="#3F3D56"/>
<path d="M167.097 143.897C164.762 133.463 172.226 122.92 183.769 120.349C195.311 117.777 206.561 124.151 208.896 134.585C211.231 145.018 203.581 148.866 192.039 151.438C180.496 154.009 169.432 154.331 167.097 143.897Z" fill="#E6E6E6"/>
<path d="M169.363 177.494C175.01 171.86 178.15 165.859 176.378 164.091C174.605 162.322 168.591 165.456 162.944 171.089C157.297 176.723 154.157 182.724 155.929 184.493C157.702 186.262 163.717 183.128 169.363 177.494Z" fill="#2F2E41"/>
<path d="M180.944 181.138C180.944 183.962 188.232 189.538 196.318 189.538C204.405 189.538 211.987 181.588 211.987 178.764C211.987 175.94 204.405 179.312 196.318 179.312C188.232 179.312 180.944 178.314 180.944 181.138Z" fill="white"/>
<path d="M261.687 171.995C262.593 169.663 257.29 165.439 249.844 162.561C242.398 159.682 235.627 159.24 234.722 161.572C233.816 163.905 239.118 168.129 246.565 171.007C254.011 173.885 260.781 174.327 261.687 171.995Z" fill="#2F2E41"/>
<path d="M277.169 199.582C293.14 199.582 306.087 186.664 306.087 170.729C306.087 154.794 293.14 141.876 277.169 141.876C261.198 141.876 248.25 154.794 248.25 170.729C248.25 186.664 261.198 199.582 277.169 199.582Z" fill="#2F2E41"/>
<path d="M281.561 209.078H290.347V193.373H281.561V209.078Z" fill="#2F2E41"/>
<path d="M263.991 209.078H272.776V193.373H263.991V209.078Z" fill="#2F2E41"/>
<path d="M283.026 212C287.069 212 290.347 210.774 290.347 209.261C290.347 207.748 287.069 206.522 283.026 206.522C278.982 206.522 275.705 207.748 275.705 209.261C275.705 210.774 278.982 212 283.026 212Z" fill="#2F2E41"/>
<path d="M265.455 211.635C269.498 211.635 272.776 210.408 272.776 208.895C272.776 207.383 269.498 206.156 265.455 206.156C261.412 206.156 258.134 207.383 258.134 208.895C258.134 210.408 261.412 211.635 265.455 211.635Z" fill="#2F2E41"/>
<path d="M276.437 173.286C281.895 173.286 286.32 168.871 286.32 163.425C286.32 157.978 281.895 153.563 276.437 153.563C270.978 153.563 266.553 157.978 266.553 163.425C266.553 168.871 270.978 173.286 276.437 173.286Z" fill="white"/>
<path d="M276.437 166.712C278.256 166.712 279.731 165.24 279.731 163.425C279.731 161.609 278.256 160.138 276.437 160.138C274.617 160.138 273.142 161.609 273.142 163.425C273.142 165.24 274.617 166.712 276.437 166.712Z" fill="#3F3D56"/>
<path d="M305.22 143.897C307.555 133.463 300.091 122.92 288.549 120.349C277.006 117.777 265.756 124.151 263.421 134.585C261.086 145.018 268.736 148.866 280.278 151.438C291.821 154.009 302.885 154.331 305.22 143.897Z" fill="#6C63FF"/>
<path d="M316.388 184.493C318.161 182.724 315.02 176.723 309.374 171.089C303.727 165.455 297.712 162.322 295.94 164.091C294.167 165.859 297.308 171.86 302.954 177.494C308.601 183.128 314.615 186.261 316.388 184.493Z" fill="#2F2E41"/>
<path d="M291.373 181.138C291.373 183.962 284.086 189.538 275.999 189.538C267.913 189.538 260.33 181.588 260.33 178.764C260.33 175.94 267.912 179.312 275.999 179.312C284.086 179.312 291.373 178.314 291.373 181.138Z" fill="white"/>
<path d="M436 140.448C436 159.094 424.89 165.605 411.186 165.605C397.481 165.605 386.371 159.094 386.371 140.448C386.371 121.802 411.186 98.0818 411.186 98.0818C411.186 98.0818 436 121.802 436 140.448Z" fill="#E6E6E6"/>
<path d="M410.282 162.752L410.536 147.147L421.112 127.842L410.576 144.699L410.69 137.683L417.979 123.715L410.72 135.826L410.926 123.206L418.731 112.086L410.958 121.222L411.086 98.0818L410.28 128.715L410.346 127.451L402.41 115.331L410.218 129.877L409.479 143.971L409.457 143.597L400.309 130.843L409.429 144.919L409.337 146.681L409.32 146.708L409.328 146.852L407.452 182.61H409.959L410.259 164.14L419.358 150.099L410.282 162.752Z" fill="#3F3D56"/>
</g>
<g clip-path="url(#clip1)">
<path d="M185.285 640.815H227.487" stroke="#3F3D56" stroke-width="2" stroke-miterlimit="10"/>
<path d="M135.009 687.392C137.291 681.42 137.622 675.998 135.747 675.281C133.872 674.565 130.502 678.825 128.219 684.797C125.937 690.769 125.606 696.191 127.481 696.908C129.356 697.624 132.726 693.364 135.009 687.392Z" fill="#2F2E41"/>
<path d="M396.699 715.26C401.291 749.429 395.039 783.635 363.24 796.954C331.441 810.274 294.865 795.294 281.546 763.495C268.226 731.696 299.653 712.669 315.005 681.8C346.181 619.115 382.442 609.15 396.699 715.26Z" fill="#F2F2F2"/>
<path d="M339.453 805.604C366.969 805.604 389.275 802.57 389.275 798.826C389.275 795.083 366.969 792.048 339.453 792.048C311.937 792.048 289.631 795.083 289.631 798.826C289.631 802.57 311.937 805.604 339.453 805.604Z" fill="#3F3D56"/>
<path d="M306.86 781.576L308.734 788.355L320.881 784.997L319.007 778.218L306.86 781.576Z" fill="#2F2E41"/>
<path d="M307.697 789.554C308.867 789.231 309.116 786.439 308.254 783.319C307.391 780.199 305.744 777.932 304.574 778.255C303.404 778.579 303.154 781.37 304.017 784.49C304.879 787.611 306.527 789.878 307.697 789.554Z" fill="#2F2E41"/>
<path d="M345.199 758.259C346.057 751.924 345.141 746.569 343.152 746.3C341.163 746.03 338.855 750.948 337.996 757.283C337.138 763.618 338.054 768.973 340.043 769.243C342.032 769.512 344.34 764.595 345.199 758.259Z" fill="#2F2E41"/>
<path d="M339.331 802.596C352.118 802.596 362.484 792.23 362.484 779.443C362.484 766.656 352.118 756.291 339.331 756.291C326.544 756.291 316.178 766.656 316.178 779.443C316.178 792.23 326.544 802.596 339.331 802.596Z" fill="#2F2E41"/>
<path d="M306.86 777.473L308.734 784.252L320.881 780.895L319.007 774.115L306.86 777.473Z" fill="#2F2E41"/>
<path d="M307.697 785.451C308.867 785.128 309.116 782.336 308.254 779.216C307.391 776.096 305.744 773.829 304.574 774.152C303.404 774.476 303.154 777.267 304.017 780.387C304.879 783.508 306.527 785.775 307.697 785.451Z" fill="#2F2E41"/>
<path d="M345.41 774.093C349.781 774.093 353.323 770.55 353.323 766.18C353.323 761.81 349.781 758.267 345.41 758.267C341.04 758.267 337.498 761.81 337.498 766.18C337.498 770.55 341.04 774.093 345.41 774.093Z" fill="white"/>
<path d="M347.941 765.322C349.398 765.322 350.579 764.141 350.579 762.685C350.579 761.228 349.398 760.047 347.941 760.047C346.484 760.047 345.303 761.228 345.303 762.685C345.303 764.141 346.484 765.322 347.941 765.322Z" fill="#3F3D56"/>
<path d="M366.068 795.353C374.636 794.924 381.198 786.91 380.724 777.454C380.251 767.997 372.922 760.678 364.354 761.107C355.786 761.536 354.442 768.261 354.915 777.718C355.388 787.175 357.5 795.782 366.068 795.353Z" fill="#6C63FF"/>
<path d="M329.869 769.647C328.475 769.759 327.093 769.313 326.027 768.407C324.961 767.501 324.299 766.209 324.187 764.814C324.074 763.42 324.519 762.038 325.425 760.972C326.331 759.906 327.623 759.244 329.018 759.131C331.922 758.896 332.714 761.201 332.949 764.105C333.184 767.009 332.773 769.412 329.869 769.647Z" fill="white"/>
<path d="M85.4963 671.805H215.178L235.284 681.601L267.318 697.207L288.263 657.991H347.534" stroke="#3F3D56" stroke-width="2" stroke-miterlimit="10"/>
<path d="M136.3 679.92C138.515 679.92 140.31 678.124 140.31 675.909C140.31 673.694 138.515 671.898 136.3 671.898C134.085 671.898 132.289 673.694 132.289 675.909C132.289 678.124 134.085 679.92 136.3 679.92Z" fill="#6C63FF"/>
<path d="M173.733 675.817C175.949 675.817 177.744 674.021 177.744 671.806C177.744 669.591 175.949 667.795 173.733 667.795C171.518 667.795 169.723 669.591 169.723 671.806C169.723 674.021 171.518 675.817 173.733 675.817Z" fill="#6C63FF"/>
<path d="M235.232 685.621C237.447 685.621 239.243 683.825 239.243 681.61C239.243 679.395 237.447 677.6 235.232 677.6C233.017 677.6 231.221 679.395 231.221 681.61C231.221 683.825 233.017 685.621 235.232 685.621Z" fill="#6C63FF"/>
<path d="M321.687 662.002C323.902 662.002 325.697 660.206 325.697 657.991C325.697 655.776 323.902 653.98 321.687 653.98C319.471 653.98 317.676 655.776 317.676 657.991C317.676 660.206 319.471 662.002 321.687 662.002Z" fill="#6C63FF"/>
<path d="M279.796 677.599C282.011 677.599 283.807 675.804 283.807 673.588C283.807 671.373 282.011 669.578 279.796 669.578C277.581 669.578 275.785 671.373 275.785 673.588C275.785 675.804 277.581 677.599 279.796 677.599Z" fill="#6C63FF"/>
<path d="M196.31 740.727C198.698 740.727 200.634 738.791 200.634 736.403C200.634 734.015 198.698 732.079 196.31 732.079C193.921 732.079 191.985 734.015 191.985 736.403C191.985 738.791 193.921 740.727 196.31 740.727Z" stroke="#3F3D56" stroke-width="2" stroke-miterlimit="10"/>
<path d="M120.822 810C148.338 810 170.644 806.966 170.644 803.222C170.644 799.479 148.338 796.444 120.822 796.444C93.3061 796.444 71 799.479 71 803.222C71 806.966 93.3061 810 120.822 810Z" fill="#3F3D56"/>
<path d="M118.127 793.258C130.914 793.258 141.28 782.892 141.28 770.105C141.28 757.318 130.914 746.953 118.127 746.953C105.34 746.953 94.9746 757.318 94.9746 770.105C94.9746 782.892 105.34 793.258 118.127 793.258Z" fill="#2F2E41"/>
<path d="M114.61 788.275H107.577V800.877H114.61V788.275Z" fill="#2F2E41"/>
<path d="M128.678 788.275H121.644V800.877H128.678V788.275Z" fill="#2F2E41"/>
<path d="M113.438 803.222C116.675 803.222 119.299 802.238 119.299 801.024C119.299 799.81 116.675 798.826 113.438 798.826C110.201 798.826 107.577 799.81 107.577 801.024C107.577 802.238 110.201 803.222 113.438 803.222Z" fill="#2F2E41"/>
<path d="M127.505 802.929C130.743 802.929 133.367 801.945 133.367 800.731C133.367 799.517 130.743 798.533 127.505 798.533C124.268 798.533 121.644 799.517 121.644 800.731C121.644 801.945 124.268 802.929 127.505 802.929Z" fill="#2F2E41"/>
<path d="M118.713 772.156C123.083 772.156 126.626 768.614 126.626 764.243C126.626 759.873 123.083 756.331 118.713 756.331C114.343 756.331 110.8 759.873 110.8 764.243C110.8 768.614 114.343 772.156 118.713 772.156Z" fill="white"/>
<path d="M118.713 766.881C120.17 766.881 121.351 765.7 121.351 764.244C121.351 762.787 120.17 761.606 118.713 761.606C117.257 761.606 116.076 762.787 116.076 764.244C116.076 765.7 117.257 766.881 118.713 766.881Z" fill="#3F3D56"/>
<path d="M95.6685 748.574C93.799 740.201 99.7749 731.741 109.016 729.678C118.257 727.615 127.264 732.729 129.134 741.101C131.003 749.474 124.879 752.561 115.637 754.625C106.396 756.688 97.5379 756.946 95.6685 748.574Z" fill="#6C63FF"/>
<path d="M110.214 726.73C123.001 726.73 133.367 716.365 133.367 703.578C133.367 690.791 123.001 680.425 110.214 680.425C97.4275 680.425 87.0618 690.791 87.0618 703.578C87.0618 716.365 97.4275 726.73 110.214 726.73Z" fill="#2F2E41"/>
<path d="M106.698 721.749H99.6638V734.351H106.698V721.749Z" fill="#2F2E41"/>
<path d="M120.765 721.749H113.731V734.351H120.765V721.749Z" fill="#2F2E41"/>
<path d="M105.525 736.695C108.762 736.695 111.387 735.711 111.387 734.497C111.387 733.283 108.762 732.299 105.525 732.299C102.288 732.299 99.6638 733.283 99.6638 734.497C99.6638 735.711 102.288 736.695 105.525 736.695Z" fill="#2F2E41"/>
<path d="M119.593 736.402C122.83 736.402 125.454 735.418 125.454 734.204C125.454 732.99 122.83 732.006 119.593 732.006C116.355 732.006 113.731 732.99 113.731 734.204C113.731 735.418 116.355 736.402 119.593 736.402Z" fill="#2F2E41"/>
<path d="M110.8 705.63C115.171 705.63 118.713 702.087 118.713 697.717C118.713 693.346 115.171 689.804 110.8 689.804C106.43 689.804 102.887 693.346 102.887 697.717C102.887 702.087 106.43 705.63 110.8 705.63Z" fill="white"/>
<path d="M110.8 700.354C112.257 700.354 113.438 699.173 113.438 697.717C113.438 696.26 112.257 695.079 110.8 695.079C109.344 695.079 108.163 696.26 108.163 697.717C108.163 699.173 109.344 700.354 110.8 700.354Z" fill="#3F3D56"/>
<path d="M87.7554 682.047C85.8859 673.674 91.8618 665.215 101.103 663.151C110.344 661.088 119.351 666.202 121.221 674.574C123.09 682.947 116.966 686.035 107.724 688.098C98.4833 690.161 89.6248 690.419 87.7554 682.047Z" fill="#6C63FF"/>
<path d="M94.5962 697.796C95.4563 695.982 91.4707 692.291 85.6941 689.551C79.9174 686.812 74.5373 686.061 73.6772 687.874C72.8171 689.688 76.8028 693.379 82.5794 696.118C88.356 698.858 93.7361 699.609 94.5962 697.796Z" fill="#2F2E41"/>
<path d="M98.8418 711.931C98.8418 714.197 104.676 718.671 111.151 718.671C117.625 718.671 123.696 712.292 123.696 710.026C123.696 707.76 117.625 710.465 111.151 710.465C104.676 710.465 98.8418 709.665 98.8418 711.931Z" fill="white"/>
<path d="M352.818 731.5H315.853V750.304H352.818V731.5Z" fill="#6C63FF"/>
<path d="M349.925 734.554H312.96V753.358H349.925V734.554Z" stroke="#3F3D56" stroke-width="2" stroke-miterlimit="10"/>
<path d="M147.961 624.321H137.411V634.872H147.961V624.321Z" fill="#FF6584"/>
<path d="M145.324 620.804H134.773V631.355H145.324V620.804Z" stroke="#3F3D56" stroke-width="2" stroke-miterlimit="10"/>
<path d="M336.537 644.681C349.324 644.681 359.69 634.315 359.69 621.528C359.69 608.741 349.324 598.375 336.537 598.375C323.751 598.375 313.385 608.741 313.385 621.528C313.385 634.315 323.751 644.681 336.537 644.681Z" fill="#2F2E41"/>
<path d="M345.479 651.181L352.4 649.928L350.155 637.527L343.234 638.78L345.479 651.181Z" fill="#2F2E41"/>
<path d="M331.637 653.688L338.558 652.435L336.313 640.035L329.392 641.288L331.637 653.688Z" fill="#2F2E41"/>
<path d="M335.311 656.298C337.782 654.205 339.148 651.759 338.364 650.832C337.579 649.906 334.941 650.851 332.47 652.943C330 655.035 328.633 657.482 329.418 658.408C330.202 659.335 332.841 658.39 335.311 656.298Z" fill="#2F2E41"/>
<path d="M348.865 653.844C351.335 651.752 352.702 649.305 351.918 648.379C351.133 647.452 348.494 648.397 346.024 650.489C343.554 652.581 342.187 655.028 342.972 655.955C343.756 656.881 346.395 655.936 348.865 653.844Z" fill="#2F2E41"/>
<path d="M334.916 623.778C339.287 623.778 342.829 620.235 342.829 615.865C342.829 611.495 339.287 607.952 334.916 607.952C330.546 607.952 327.003 611.495 327.003 615.865C327.003 620.235 330.546 623.778 334.916 623.778Z" fill="white"/>
<path d="M331.664 615.666C333.121 615.666 334.302 614.485 334.302 613.029C334.302 611.572 333.121 610.391 331.664 610.391C330.208 610.391 329.027 611.572 329.027 613.029C329.027 614.485 330.208 615.666 331.664 615.666Z" fill="#3F3D56"/>
<path d="M354.802 596.341C355.15 587.769 347.762 580.509 338.301 580.125C328.841 579.74 320.889 586.377 320.541 594.949C320.192 603.52 326.769 605.468 336.23 605.852C345.691 606.236 354.453 604.912 354.802 596.341Z" fill="#6C63FF"/>
<path d="M326.443 619.897C326.891 617.94 322.203 615.196 315.971 613.768C309.739 612.339 304.324 612.767 303.875 614.724C303.427 616.68 308.115 619.424 314.347 620.853C320.579 622.281 325.994 621.853 326.443 619.897Z" fill="#2F2E41"/>
<path d="M371.89 627.454C372.339 625.498 367.651 622.754 361.419 621.326C355.187 619.897 349.772 620.325 349.323 622.281C348.875 624.238 353.563 626.982 359.795 628.41C366.027 629.839 371.442 629.411 371.89 627.454Z" fill="#2F2E41"/>
<path d="M342.896 630.652C343.02 631.334 343.008 632.033 342.861 632.71C342.714 633.387 342.435 634.029 342.04 634.598C341.646 635.167 341.143 635.653 340.56 636.028C339.977 636.403 339.327 636.66 338.645 636.783C337.963 636.906 337.264 636.894 336.587 636.747C335.91 636.601 335.269 636.322 334.699 635.927C334.13 635.532 333.644 635.029 333.269 634.447C332.894 633.864 332.638 633.213 332.514 632.532C331.995 629.665 334.212 628.65 337.079 628.131C339.946 627.613 342.377 627.786 342.896 630.652Z" fill="white"/>
<path d="M279.843 595.014L306.512 615.529" stroke="#3F3D56" stroke-width="2" stroke-miterlimit="10"/>
<path d="M267.241 605.858C278.247 605.858 287.17 596.935 287.17 585.929C287.17 574.922 278.247 566 267.241 566C256.235 566 247.312 574.922 247.312 585.929C247.312 596.935 256.235 605.858 267.241 605.858Z" fill="#FF6584"/>
<path d="M336.509 763.761C337.367 757.425 336.451 752.071 334.462 751.801C332.473 751.532 330.165 756.449 329.306 762.784C328.448 769.12 329.364 774.474 331.353 774.744C333.342 775.014 335.65 770.096 336.509 763.761Z" fill="#2F2E41"/>
<path d="M91.1665 800.372C93.3816 800.372 95.1773 798.576 95.1773 796.361C95.1773 794.146 93.3816 792.35 91.1665 792.35C88.9514 792.35 87.1558 794.146 87.1558 796.361C87.1558 798.576 88.9514 800.372 91.1665 800.372Z" fill="#6C63FF"/>
<path d="M156.753 791.665H146.203V802.215H156.753V791.665Z" fill="#FF6584"/>
<path d="M146.264 802.716C148.479 802.716 150.275 800.921 150.275 798.706C150.275 796.491 148.479 794.695 146.264 794.695C144.049 794.695 142.253 796.491 142.253 798.706C142.253 800.921 144.049 802.716 146.264 802.716Z" fill="#6C63FF"/>
<path d="M206.386 644.752C208.601 644.752 210.397 642.956 210.397 640.741C210.397 638.526 208.601 636.73 206.386 636.73C204.171 636.73 202.375 638.526 202.375 640.741C202.375 642.956 204.171 644.752 206.386 644.752Z" fill="#6C63FF"/>
<path d="M284.274 766.984C285.332 766.984 286.189 766.126 286.189 765.069C286.189 764.011 285.332 763.153 284.274 763.153C283.216 763.153 282.358 764.011 282.358 765.069C282.358 766.126 283.216 766.984 284.274 766.984Z" fill="#FF6584"/>
<path d="M293.657 796.859V775.051" stroke="#3F3D56" stroke-width="2" stroke-miterlimit="10"/>
<path d="M293.657 778.135C295.36 778.135 296.741 776.754 296.741 775.051C296.741 773.348 295.36 771.967 293.657 771.967C291.954 771.967 290.573 773.348 290.573 775.051C290.573 776.754 291.954 778.135 293.657 778.135Z" fill="#3F3D56"/>
<path d="M293.657 788.492C293.657 788.492 293.217 779.016 284.185 780.117Z" fill="#3F3D56"/>
</g>
<defs>
<clipPath id="clip0">
<rect width="397" height="212" fill="white" transform="translate(39)"/>
</clipPath>
<clipPath id="clip1">
<rect width="327.042" height="244" fill="white" transform="translate(71 566)"/>
</clipPath>
</defs>
</svg>
