<svg id="drawing2" stroke="black" stroke-width="1px" width="932" height="899" viewBox="0 0 932 899" fill="none" xmlns="http://www.w3.org/2000/svg">
<path d="M654.264 356.727C654.264 356.727 645.668 335.6 671.453 319.754L654.264 356.727Z" fill="#E6E6E6"/>
<path d="M643.693 356.343C643.693 356.343 641.072 341.284 620.778 341.413L643.693 356.343Z" fill="#E6E6E6"/>
<path d="M837.554 356.727C837.554 356.727 826.199 328.815 860.264 307.881L837.554 356.727Z" fill="#E6E6E6"/>
<path d="M823.589 356.219C823.589 356.219 820.125 336.325 793.315 336.496Z" fill="#E6E6E6"/>
<path d="M781.659 343.981L775.068 346.426L762.486 322.204L772.214 318.595L781.659 343.981Z" fill="#FFB7B7"/>
<path d="M785.713 349.737L764.462 357.622L764.362 357.353C763.547 355.163 763.637 352.738 764.612 350.614C765.586 348.489 767.366 346.838 769.56 346.024L769.561 346.024L782.54 341.208L785.713 349.737Z" fill="#2F2E41"/>
<path d="M716.798 350.816L709.767 350.815L706.422 323.734L716.799 323.734L716.798 350.816Z" fill="#FFB7B7"/>
<path d="M718.017 357.622L695.347 357.621V357.335C695.347 354.998 696.276 352.756 697.931 351.104C699.586 349.451 701.83 348.523 704.171 348.523H704.171L718.018 348.524L718.017 357.622Z" fill="#2F2E41"/>
<path d="M748.988 162.991L746.694 158.41L727.195 168.146L727.769 172.155L724.041 177.023C724.041 177.023 717.732 180.459 718.879 191.913L720.026 202.794L721.46 216.826L711.424 251.474L706.262 297.29L702.535 334.23L720.6 333.371L737.231 273.237L766.48 337.952L786.552 332.798L759.024 268.655L755.583 241.738C755.583 241.738 757.877 227.421 746.981 217.685L748.701 212.53V206.179L754.436 175.877L748.988 162.991Z" fill="#2F2E41"/>
<path opacity="0.2" d="M749.524 228.474L736.907 273.145L737.556 273.328L750.173 228.657L749.524 228.474Z" fill="black"/>
<path d="M748.414 216.825H720.313V219.689H748.414V216.825Z" fill="#3F3D56"/>
<path d="M720.313 221.407C720.947 221.407 721.46 220.125 721.46 218.543C721.46 216.962 720.947 215.68 720.313 215.68C719.68 215.68 719.166 216.962 719.166 218.543C719.166 220.125 719.68 221.407 720.313 221.407Z" fill="#3F3D56"/>
<path d="M740.318 155.584C747.726 151.54 750.448 142.265 746.399 134.867C742.349 127.469 733.061 124.75 725.653 128.794C718.245 132.838 715.522 142.114 719.572 149.512C723.622 156.909 732.91 159.628 740.318 155.584Z" fill="#FFB7B7"/>
<path d="M756.378 136.74C763.847 136.74 769.902 130.693 769.902 123.235C769.902 115.776 763.847 109.729 756.378 109.729C748.909 109.729 742.854 115.776 742.854 123.235C742.854 130.693 748.909 136.74 756.378 136.74Z" fill="#2F2E41"/>
<path d="M773.54 121.788C774.073 123.577 774.23 125.458 773.999 127.31C773.767 129.163 773.154 130.948 772.198 132.552C771.241 134.156 769.962 135.544 768.441 136.63C766.92 137.715 765.19 138.474 763.36 138.858C761.531 139.242 759.641 139.243 757.811 138.861C755.981 138.479 754.25 137.723 752.728 136.639C751.205 135.556 749.924 134.168 748.966 132.565C748.007 130.963 747.392 129.179 747.159 127.326C748.128 130.575 750.285 133.341 753.201 135.076C756.118 136.81 759.581 137.386 762.903 136.688C766.225 135.991 769.163 134.071 771.134 131.311C773.104 128.551 773.963 125.151 773.54 121.788V121.788Z" fill="#2F2E41"/>
<path d="M720.113 137.951C719.716 141.442 720.483 144.966 722.296 147.977C724.108 150.989 726.864 153.319 730.137 154.607C733.41 155.896 737.018 156.07 740.4 155.103C743.782 154.136 746.751 152.083 748.846 149.26C750.941 146.438 752.045 143.004 751.988 139.491C751.93 135.978 750.714 132.583 748.528 129.83C746.342 127.077 743.308 125.121 739.895 124.266C736.483 123.41 732.884 123.702 729.654 125.096C726.984 122.945 723.673 123.612 720.981 125.882C717.937 128.448 717.033 130.212 714.672 134.432C716.994 134.758 717.791 137.625 720.113 137.951Z" fill="#2F2E41"/>
<path d="M776.305 183.86C776.134 188.384 775.795 197.289 775.795 197.743C775.795 198.222 769.034 212.201 766.114 218.216V218.22C765.906 218.644 765.72 219.028 765.555 219.367C765.329 219.833 764.974 220.226 764.532 220.497C764.089 220.769 763.578 220.908 763.059 220.898L750.296 220.669C749.594 220.657 748.925 220.375 748.426 219.882C747.928 219.388 747.64 218.722 747.623 218.021L746.199 161.947C746.194 161.762 746.227 161.578 746.294 161.406C746.362 161.234 746.463 161.077 746.593 160.944C746.722 160.812 746.876 160.706 747.047 160.635C747.218 160.563 747.401 160.526 747.586 160.525H764.046C764.741 160.526 765.422 160.722 766.011 161.091C766.6 161.46 767.073 161.987 767.376 162.612L775.276 178.933C776.016 180.467 776.37 182.158 776.305 183.86V183.86Z" fill="#6C63FF"/>
<path d="M747.4 214.173C744.125 212.191 741.183 209.707 738.68 206.813C732.864 200.281 729.327 192.042 728.6 183.332C727.951 175.879 729.432 170.34 733.001 166.867C737.538 162.453 743.714 163.094 743.974 163.124L744.251 163.155L748.434 166.69L747.25 168.088L743.507 164.924C742.361 164.867 737.683 164.855 734.265 168.193C731.12 171.265 729.828 176.305 730.426 183.173C731.118 191.466 734.477 199.313 740.002 205.543C742.385 208.296 745.179 210.666 748.285 212.57L747.4 214.173Z" fill="#6C63FF"/>
<path d="M771.151 192.87L748.85 197.444L748.973 198.041L771.274 193.467L771.151 192.87Z" fill="#3F3D56"/>
<path d="M756.453 160.513L755.842 160.538L757.291 195.974L757.901 195.949L756.453 160.513Z" fill="#3F3D56"/>
<path d="M776.305 183.86C776.134 188.384 775.795 197.289 775.795 197.743C775.795 198.222 769.034 212.2 766.114 218.216L771.557 186.651C771.768 185.437 772.298 184.3 773.093 183.357C773.888 182.414 774.919 181.699 776.082 181.285C776.265 182.13 776.34 182.995 776.305 183.86Z" fill="#3F3D56"/>
<path d="M742.859 250.012C743.341 249.391 743.681 248.673 743.855 247.908C744.029 247.142 744.032 246.348 743.866 245.58C743.699 244.813 743.366 244.092 742.889 243.467C742.413 242.842 741.806 242.329 741.11 241.964L742.216 229.742L734.942 227.26L733.623 244.541C733.087 245.75 733.013 247.113 733.415 248.372C733.818 249.631 734.669 250.699 735.808 251.373C736.946 252.047 738.293 252.281 739.592 252.03C740.892 251.779 742.054 251.061 742.859 250.012V250.012Z" fill="#FFB7B7"/>
<path d="M743.809 238.185L730.921 237.718L731.466 175.649C731.457 173.893 732 172.178 733.02 170.747C734.04 169.316 735.485 168.241 737.15 167.675C738.705 167.158 740.387 167.157 741.943 167.67C743.709 168.267 745.225 169.434 746.253 170.987C747.281 172.54 747.761 174.39 747.619 176.246L743.809 238.185Z" fill="#CBCBCB"/>
<path d="M856.875 357.833H600.092C599.913 357.833 599.742 357.762 599.615 357.636C599.489 357.51 599.418 357.339 599.418 357.16C599.418 356.982 599.489 356.81 599.615 356.684C599.742 356.558 599.913 356.487 600.092 356.487H856.875C857.054 356.487 857.225 356.558 857.352 356.684C857.478 356.81 857.549 356.982 857.549 357.16C857.549 357.339 857.478 357.51 857.352 357.636C857.225 357.762 857.054 357.833 856.875 357.833Z" fill="#CBCBCB"/>
<path d="M861.209 357.031H55.9326C53.0219 357.031 50.1397 357.604 47.4505 358.719C44.7614 359.833 42.318 361.467 40.2598 363.526C38.2016 365.585 36.569 368.03 35.4552 370.721C34.3413 373.411 33.7679 376.295 33.7679 379.207V828.14C33.7679 831.052 34.3412 833.936 35.4551 836.626C36.569 839.317 38.2016 841.762 40.2598 843.821C42.318 845.88 44.7614 847.514 47.4505 848.628C50.1397 849.743 53.0219 850.317 55.9326 850.317H861.209C867.088 850.317 872.725 847.98 876.882 843.821C881.039 839.662 883.374 834.021 883.374 828.14V379.207C883.374 373.326 881.039 367.685 876.882 363.526C872.725 359.367 867.088 357.031 861.209 357.031V357.031Z" fill="#3F3D56"/>
<path d="M853.658 396.223H63.4841V842.208H853.658V396.223Z" fill="white"/>
<path d="M457.895 384.06C462.371 384.06 466 380.429 466 375.951C466 371.472 462.371 367.842 457.895 367.842C453.419 367.842 449.791 371.472 449.791 375.951C449.791 380.429 453.419 384.06 457.895 384.06Z" fill="white"/>
<path d="M627.681 842.208H63.4836V396.224L627.681 842.208Z" fill="#F2F2F2"/>
<path d="M168.689 809.05C200.346 809.05 226.01 783.387 226.01 751.729C226.01 720.071 200.346 694.408 168.689 694.408C137.031 694.408 111.367 720.071 111.367 751.729C111.367 783.387 137.031 809.05 168.689 809.05Z" fill="#6C63FF"/>
<path d="M797.753 422.913H766.907V453.777H797.753V422.913Z" fill="#6C63FF"/>
<path d="M812.075 468.106H774.618V430.629H812.075V468.106ZM776.247 466.477H810.446V432.259H776.247L776.247 466.477Z" fill="#CCCCCC"/>
<path d="M905.56 834.099H828.444V828.54C828.444 828.395 828.416 828.251 828.361 828.118C828.305 827.984 828.224 827.862 828.122 827.76C828.02 827.658 827.898 827.577 827.764 827.521C827.631 827.466 827.487 827.437 827.343 827.437H800.903C800.758 827.437 800.615 827.466 800.481 827.521C800.348 827.577 800.226 827.658 800.124 827.76C800.022 827.862 799.941 827.984 799.885 828.118C799.83 828.251 799.801 828.395 799.801 828.539V834.099H783.277V828.54C783.277 828.395 783.248 828.251 783.193 828.118C783.137 827.984 783.056 827.862 782.954 827.76C782.852 827.658 782.73 827.577 782.597 827.521C782.463 827.466 782.32 827.437 782.175 827.437H755.735C755.591 827.437 755.447 827.466 755.314 827.521C755.18 827.577 755.059 827.658 754.956 827.76C754.854 827.862 754.773 827.984 754.717 828.118C754.662 828.251 754.634 828.395 754.634 828.54V828.54V834.099H738.109V828.54C738.109 828.395 738.08 828.251 738.025 828.118C737.97 827.984 737.888 827.862 737.786 827.76C737.684 827.658 737.562 827.577 737.429 827.521C737.295 827.466 737.152 827.437 737.007 827.437H710.567C710.423 827.437 710.279 827.466 710.146 827.521C710.012 827.577 709.891 827.658 709.788 827.76C709.686 827.862 709.605 827.984 709.55 828.118C709.494 828.251 709.466 828.395 709.466 828.54V828.54V834.099H692.941V828.54C692.941 828.395 692.913 828.251 692.857 828.118C692.802 827.984 692.721 827.862 692.618 827.76C692.516 827.658 692.395 827.577 692.261 827.521C692.127 827.466 691.984 827.437 691.839 827.437H665.4C665.255 827.437 665.112 827.466 664.978 827.521C664.844 827.577 664.723 827.658 664.621 827.76C664.518 827.862 664.437 827.984 664.382 828.118C664.326 828.251 664.298 828.395 664.298 828.539V834.099H647.773V828.54C647.773 828.395 647.745 828.251 647.689 828.118C647.634 827.984 647.553 827.862 647.45 827.76C647.348 827.658 647.227 827.577 647.093 827.521C646.959 827.466 646.816 827.437 646.672 827.437H620.232C620.087 827.437 619.944 827.466 619.81 827.521C619.677 827.577 619.555 827.658 619.453 827.76C619.351 827.862 619.269 827.984 619.214 828.118C619.159 828.251 619.13 828.395 619.13 828.54V828.54V834.099H602.605V828.54C602.605 828.395 602.577 828.251 602.521 828.118C602.466 827.984 602.385 827.862 602.283 827.76C602.18 827.658 602.059 827.577 601.925 827.521C601.792 827.466 601.648 827.437 601.504 827.437H575.064C574.919 827.437 574.776 827.466 574.642 827.521C574.509 827.577 574.387 827.658 574.285 827.76C574.183 827.862 574.101 827.984 574.046 828.118C573.991 828.251 573.962 828.395 573.962 828.54V828.54V834.099H557.437V828.54C557.437 828.395 557.409 828.251 557.354 828.118C557.298 827.984 557.217 827.862 557.115 827.76C557.012 827.658 556.891 827.577 556.757 827.521C556.624 827.466 556.481 827.437 556.336 827.437H349.225C349.08 827.437 348.937 827.466 348.803 827.521C348.669 827.577 348.548 827.658 348.446 827.76C348.343 827.862 348.262 827.984 348.207 828.118C348.151 828.251 348.123 828.395 348.123 828.54V828.54V834.099H331.598V828.54C331.598 828.395 331.57 828.251 331.514 828.118C331.459 827.984 331.378 827.862 331.275 827.76C331.173 827.658 331.052 827.577 330.918 827.521C330.784 827.466 330.641 827.437 330.497 827.437H304.057C303.912 827.437 303.769 827.466 303.635 827.521C303.502 827.577 303.38 827.658 303.278 827.76C303.176 827.862 303.094 827.984 303.039 828.118C302.984 828.251 302.955 828.395 302.955 828.54V828.54V834.099H286.43V828.54C286.43 828.395 286.402 828.251 286.346 828.118C286.291 827.984 286.21 827.862 286.108 827.76C286.005 827.658 285.884 827.577 285.75 827.521C285.617 827.466 285.473 827.437 285.329 827.437H258.889C258.744 827.437 258.601 827.466 258.467 827.521C258.334 827.577 258.212 827.658 258.11 827.76C258.008 827.862 257.926 827.984 257.871 828.118C257.816 828.251 257.787 828.395 257.787 828.54V828.54V834.099H241.262V828.54C241.262 828.395 241.234 828.251 241.179 828.118C241.123 827.984 241.042 827.862 240.94 827.76C240.837 827.658 240.716 827.577 240.582 827.521C240.449 827.466 240.305 827.437 240.161 827.437H213.721C213.576 827.437 213.433 827.466 213.299 827.521C213.166 827.577 213.044 827.658 212.942 827.76C212.84 827.862 212.759 827.984 212.703 828.118C212.648 828.251 212.619 828.395 212.619 828.54V828.54V834.099H196.095V828.54C196.095 828.395 196.066 828.251 196.011 828.118C195.955 827.984 195.874 827.862 195.772 827.76C195.67 827.658 195.548 827.577 195.415 827.521C195.281 827.466 195.138 827.437 194.993 827.437H168.553C168.409 827.437 168.265 827.466 168.132 827.521C167.998 827.577 167.877 827.658 167.774 827.76C167.672 827.862 167.591 827.984 167.535 828.118C167.48 828.251 167.452 828.395 167.452 828.54V828.54V834.099H150.927V828.54C150.927 828.395 150.898 828.251 150.843 828.118C150.788 827.984 150.706 827.862 150.604 827.76C150.502 827.658 150.38 827.577 150.247 827.521C150.113 827.466 149.97 827.437 149.825 827.437H123.385C123.093 827.437 122.813 827.553 122.606 827.76C122.4 827.967 122.284 828.247 122.284 828.539V834.099H105.759V828.54C105.759 828.395 105.73 828.251 105.675 828.118C105.62 827.984 105.539 827.862 105.436 827.76C105.334 827.658 105.213 827.577 105.079 827.521C104.945 827.466 104.802 827.437 104.657 827.437H78.2175C77.9253 827.437 77.6451 827.553 77.4385 827.76C77.2319 827.967 77.1159 828.247 77.1159 828.54V834.099H26.4397C19.4274 834.099 12.7024 836.886 7.74402 841.847C2.78562 846.808 0 853.537 0 860.553V872.515C1.67014e-05 879.531 2.78562 886.26 7.74402 891.221C12.7024 896.182 19.4274 898.969 26.4397 898.969H905.56C912.573 898.969 919.298 896.182 924.256 891.221C929.214 886.26 932 879.531 932 872.515V860.553C932 857.079 931.316 853.639 929.987 850.429C928.659 847.22 926.711 844.304 924.256 841.847C921.801 839.391 918.886 837.442 915.678 836.113C912.471 834.783 909.032 834.099 905.56 834.099V834.099Z" fill="#3F3D56"/>
<path d="M175.091 463.815L189.427 449.523L175.091 435.231L179.462 430.875L198.168 449.523L179.462 468.171L175.091 463.815Z" fill="#6C63FF"/>
<path d="M134.152 450.543H139.98V444.715H134.152L134.152 450.543ZM163.407 444.715H157.579V450.543H163.407V444.715ZM145.866 450.543H151.693V444.715H145.866V450.543Z" fill="#6C63FF"/>
<path d="M126.256 463.67L111.905 449.378L126.241 435.086L121.87 430.729L103.178 449.378L121.885 468.026L126.256 463.67Z" fill="#6C63FF"/>
<g clip-path="url(#clip0)">
<path d="M287.295 346.648L289.708 340.446L266.92 328.193L263.36 337.347L287.295 346.648Z" fill="#FFB8B8"/>
<path d="M300.221 330.467C299.198 330.069 298.107 329.877 297.01 329.901C295.913 329.924 294.831 330.164 293.827 330.606C292.822 331.048 291.915 331.683 291.156 332.476C290.397 333.269 289.803 334.203 289.405 335.226L287.778 339.407L285.269 345.861L284.656 347.443L292.696 350.57L300.474 330.568L300.221 330.467Z" fill="#2F2E41"/>
<path d="M285.27 334.711L284.221 337.492L281.602 344.434L281.539 344.607C274.868 345.464 267.554 343.784 260.789 341.175C258.083 340.131 255.432 338.949 252.847 337.633C249.022 335.701 245.597 333.662 242.864 331.918C238.75 329.278 236.206 327.296 236.206 327.296C236.206 327.296 235.534 327.903 234.318 328.944C232.688 330.338 230.083 332.515 226.784 335.078C225.525 336.062 224.174 337.092 222.73 338.167C212.085 346.058 198.425 325 198.425 325C198.425 325 202.267 322.555 203.27 322.081C206.502 320.552 214.095 316.946 220.645 313.741C224.02 312.087 227.114 310.537 229.192 309.435C236.548 305.521 245.692 312.928 245.692 312.928L285.27 334.711Z" fill="#2F2E41"/>
<path opacity="0.14" d="M285.27 334.711L284.221 337.492L281.602 344.434L281.539 344.607C274.868 345.464 267.554 343.784 260.789 341.175C258.083 340.131 255.432 338.949 252.847 337.633C249.022 335.701 245.597 333.662 242.864 331.918C238.75 329.278 236.206 327.296 236.206 327.296C236.206 327.296 235.534 327.903 234.318 328.944C232.688 330.338 230.083 332.515 226.784 335.078C225.525 336.062 224.174 337.092 222.73 338.167C212.085 346.058 198.425 325 198.425 325C198.425 325 202.267 322.555 203.27 322.081C206.502 320.552 214.095 316.946 220.645 313.741C224.02 312.087 227.114 310.537 229.192 309.435C236.548 305.521 245.692 312.928 245.692 312.928L285.27 334.711Z" fill="black"/>
<path d="M150.466 187.065C202.147 187.065 244.043 145.189 244.043 93.5324C244.043 41.8759 202.147 0 150.466 0C98.7848 0 56.889 41.8759 56.889 93.5324C56.889 145.189 98.7848 187.065 150.466 187.065Z" fill="#6C63FF"/>
<path opacity="0.2" d="M81.3719 31.0601C72.6432 51.4682 71.4592 74.3136 78.0312 95.514C84.6032 116.714 98.5031 134.888 117.247 146.788C135.991 158.688 158.358 163.538 180.35 160.472C202.342 157.406 222.528 146.624 237.299 130.052C231.966 142.52 223.986 153.681 213.91 162.761C203.834 171.841 191.904 178.622 178.946 182.636C165.987 186.649 152.311 187.799 138.864 186.005C125.417 184.211 112.521 179.516 101.069 172.246C89.6178 164.976 79.8846 155.304 72.544 143.901C65.2034 132.498 60.4309 119.636 58.5573 106.206C56.6836 92.7759 57.7536 79.0995 61.693 66.124C65.6324 53.1485 72.3471 41.1842 81.3719 31.0601Z" fill="black"/>
<path d="M150.723 93.5317H150.98L155.608 358.711H145.838L150.723 93.5317Z" fill="#3F3D56"/>
<path d="M136.318 213.798L134.162 217.89L149.631 226.03L151.787 221.938L136.318 213.798Z" fill="#3F3D56"/>
<path d="M466.217 359.767H51.3135C51.1694 359.767 51.0313 359.71 50.9294 359.608C50.8276 359.506 50.7704 359.368 50.7704 359.224C50.7704 359.08 50.8276 358.942 50.9294 358.841C51.0313 358.739 51.1694 358.682 51.3135 358.682H466.217C466.361 358.682 466.499 358.739 466.601 358.841C466.703 358.942 466.76 359.08 466.76 359.224C466.76 359.368 466.703 359.506 466.601 359.608C466.499 359.71 466.361 359.767 466.217 359.767Z" fill="#3F3D56"/>
<path d="M178.796 276.331H147.298C146.65 276.331 146.029 276.073 145.571 275.615C145.113 275.157 144.855 274.536 144.854 273.889V260.319C144.854 255.496 146.771 250.871 150.183 247.461C153.595 244.05 158.222 242.135 163.047 242.135C167.872 242.135 172.5 244.05 175.911 247.461C179.323 250.871 181.24 255.496 181.24 260.319V273.889C181.239 274.536 180.981 275.157 180.523 275.615C180.065 276.073 179.444 276.331 178.796 276.331Z" fill="#2F2E41"/>
<path d="M208.751 293.377C208.017 293.506 207.321 293.793 206.711 294.22C206.101 294.647 205.593 295.202 205.221 295.846C204.848 296.491 204.622 297.209 204.558 297.951C204.494 298.692 204.593 299.438 204.848 300.137L196.283 308.011L199.801 314.381L211.74 303.091C212.887 302.584 213.807 301.675 214.327 300.535C214.847 299.395 214.931 298.104 214.562 296.907C214.194 295.709 213.399 294.689 212.328 294.038C211.256 293.388 209.984 293.152 208.751 293.377Z" fill="#FFB8B8"/>
<path d="M182.979 329.176C182.592 329.176 182.205 329.159 181.817 329.126C179.506 328.933 177.283 328.157 175.354 326.87C173.426 325.583 171.857 323.827 170.794 321.768L157.072 295.369C156.173 293.64 155.975 291.63 156.521 289.759C157.066 287.887 158.313 286.298 160.001 285.321C161.689 284.345 163.688 284.057 165.583 284.516C167.479 284.976 169.123 286.148 170.176 287.789L182.835 316.18L200.061 302.191L210.035 306.072L193.191 324.658C191.896 326.079 190.319 327.214 188.561 327.992C186.803 328.77 184.902 329.173 182.979 329.176V329.176Z" fill="#CCCCCC"/>
<path d="M233.737 288.386L218.476 273.132C217.942 272.599 217.218 272.299 216.463 272.299C215.708 272.299 214.984 272.599 214.45 273.132L200.721 286.855C200.187 287.388 199.888 288.112 199.888 288.867C199.888 289.621 200.187 290.345 200.721 290.879L214.98 305.131C215.489 305.639 216.171 305.936 216.89 305.962C217.608 305.988 218.31 305.742 218.854 305.272L233.585 292.551C233.868 292.307 234.1 292.01 234.268 291.676C234.436 291.342 234.536 290.978 234.563 290.605C234.59 290.233 234.544 289.858 234.426 289.504C234.309 289.149 234.123 288.821 233.878 288.538C233.833 288.486 233.786 288.435 233.737 288.386Z" fill="#3F3D56"/>
<path d="M231.576 291.061L215.868 275.361L202.904 288.318L218.003 303.409L231.576 291.061Z" fill="#F2F2F2"/>
<path d="M216.981 295.631C220.504 295.631 223.36 292.777 223.36 289.255C223.36 285.734 220.504 282.879 216.981 282.879C213.458 282.879 210.602 285.734 210.602 289.255C210.602 292.777 213.458 295.631 216.981 295.631Z" fill="#6C63FF"/>
<path opacity="0.1" d="M219.821 294.69C220.888 293.688 221.577 292.349 221.774 290.899C221.97 289.448 221.662 287.975 220.9 286.725C220.138 285.475 218.969 284.526 217.589 284.036C216.209 283.545 214.703 283.545 213.323 284.033C214.068 283.511 214.917 283.155 215.812 282.988C216.707 282.821 217.627 282.848 218.511 283.066C219.394 283.284 220.221 283.689 220.936 284.253C221.65 284.817 222.235 285.527 222.652 286.336C223.069 287.145 223.308 288.034 223.352 288.942C223.397 289.851 223.247 290.759 222.912 291.605C222.576 292.451 222.064 293.215 221.408 293.846C220.753 294.478 219.97 294.962 219.112 295.265C219.361 295.091 219.598 294.898 219.821 294.69Z" fill="black"/>
<path d="M213.845 287.988C213.084 288.703 213.044 291.275 214.206 292.51C215.367 293.746 217.291 293.177 218.051 292.463C218.812 291.748 218.122 291.159 216.96 289.923C215.799 288.687 214.606 287.274 213.845 287.988Z" fill="#F2F2F2"/>
<path d="M220.321 291.248C221.365 291.248 222.211 290.403 222.211 289.359C222.211 288.316 221.365 287.47 220.321 287.47C219.277 287.47 218.431 288.316 218.431 289.359C218.431 290.403 219.277 291.248 220.321 291.248Z" fill="#2F2E41"/>
<path d="M216.924 287.634C217.968 287.634 218.814 286.788 218.814 285.745C218.814 284.702 217.968 283.856 216.924 283.856C215.88 283.856 215.034 284.702 215.034 285.745C215.034 286.788 215.88 287.634 216.924 287.634Z" fill="#2F2E41"/>
<path d="M220.321 289.832C220.582 289.832 220.793 289.62 220.793 289.359C220.793 289.098 220.582 288.887 220.321 288.887C220.06 288.887 219.848 289.098 219.848 289.359C219.848 289.62 220.06 289.832 220.321 289.832Z" fill="#F2F2F2"/>
<path d="M220.524 288.432C220.655 288.432 220.76 288.327 220.76 288.196C220.76 288.066 220.655 287.96 220.524 287.96C220.394 287.96 220.288 288.066 220.288 288.196C220.288 288.327 220.394 288.432 220.524 288.432Z" fill="#F2F2F2"/>
<path d="M217.127 284.818C217.257 284.818 217.363 284.713 217.363 284.582C217.363 284.452 217.257 284.346 217.127 284.346C216.996 284.346 216.891 284.452 216.891 284.582C216.891 284.713 216.996 284.818 217.127 284.818Z" fill="#F2F2F2"/>
<path d="M216.924 286.218C217.185 286.218 217.396 286.006 217.396 285.745C217.396 285.485 217.185 285.273 216.924 285.273C216.663 285.273 216.451 285.485 216.451 285.745C216.451 286.006 216.663 286.218 216.924 286.218Z" fill="#F2F2F2"/>
<path d="M285.37 355.372L288.252 349.373L266.474 335.407L262.221 344.261L285.37 355.372Z" fill="#FFB8B8"/>
<path d="M299.502 340.232C298.513 339.756 297.44 339.48 296.344 339.42C295.248 339.359 294.151 339.515 293.116 339.879C292.08 340.242 291.127 340.806 290.309 341.538C289.492 342.27 288.827 343.156 288.353 344.145L286.409 348.189L283.411 354.431L282.678 355.962L290.454 359.697L299.746 340.351L299.502 340.232Z" fill="#2F2E41"/>
<path d="M284.269 343.315L283.009 346.007L279.864 352.727L279.788 352.895C273.071 353.237 265.908 351.001 259.364 347.88C256.745 346.632 254.193 345.249 251.717 343.738C248.052 341.518 244.793 339.222 242.203 337.273C238.304 334.326 235.92 332.155 235.92 332.155C235.92 332.155 235.203 332.708 233.91 333.653C232.178 334.917 229.414 336.888 225.927 339.189C224.597 340.074 223.17 340.997 221.648 341.958C210.428 349.009 194.473 357.596 180.901 359.409C157.066 362.595 162.676 330.803 162.676 330.803L181.645 320.956L189.699 322.59L198.665 324.403L201.842 325.049C201.842 325.049 202.445 324.821 203.482 324.425C206.822 323.149 214.669 320.137 221.447 317.444C224.939 316.055 228.143 314.747 230.299 313.808C237.934 310.469 246.482 318.557 246.482 318.557L284.269 343.315Z" fill="#2F2E41"/>
<path d="M127.964 360.168C128.69 360.002 129.37 359.678 129.957 359.221C130.544 358.763 131.024 358.182 131.362 357.519C131.7 356.857 131.889 356.128 131.915 355.384C131.941 354.64 131.803 353.9 131.512 353.215L139.658 344.909L135.816 338.73L124.476 350.621C123.358 351.187 122.486 352.143 122.025 353.308C121.565 354.473 121.548 355.766 121.978 356.943C122.408 358.12 123.255 359.098 124.358 359.693C125.462 360.287 126.745 360.456 127.965 360.168L127.964 360.168Z" fill="#FFB8B8"/>
<path d="M167.507 276.937C174.521 276.937 180.207 271.254 180.207 264.243C180.207 257.232 174.521 251.549 167.507 251.549C160.493 251.549 154.807 257.232 154.807 264.243C154.807 271.254 160.493 276.937 167.507 276.937Z" fill="#FFB8B8"/>
<path d="M150.984 299.48L162.048 330.831L161.981 330.941C160.442 333.483 159.939 335.534 160.527 336.871C160.682 337.211 160.908 337.514 161.191 337.758C161.474 338.002 161.807 338.182 162.166 338.285L188.347 319.994L187.43 312.663L187.481 312.581C190.012 308.534 190.831 304.869 189.917 301.689C188.731 297.561 184.961 295.687 184.923 295.669L184.832 295.597L171.774 279.711L154.319 282.811L150.984 299.48Z" fill="#CCCCCC"/>
<path d="M134.16 354.508L126.749 345.391L144.615 315.911L152.945 290.175L153.203 290.259L152.945 290.175C153.4 288.769 154.151 287.477 155.148 286.386C156.145 285.295 157.365 284.43 158.724 283.849C160.084 283.269 161.552 282.987 163.03 283.022C164.508 283.056 165.961 283.408 167.292 284.051C168.623 284.695 169.8 285.616 170.745 286.753C171.689 287.89 172.379 289.216 172.767 290.642C173.155 292.068 173.233 293.56 172.996 295.019C172.758 296.477 172.21 297.868 171.39 299.097L156.097 321.998L134.16 354.508Z" fill="#CCCCCC"/>
<path d="M185.544 261.676H166.284L166.086 258.912L165.099 261.676H162.133L161.742 256.198L159.784 261.676H154.046V261.404C154.05 257.591 155.568 253.934 158.266 251.238C160.964 248.541 164.622 247.024 168.437 247.02H171.153C174.968 247.024 178.626 248.541 181.324 251.238C184.022 253.934 185.54 257.591 185.544 261.404V261.676Z" fill="#2F2E41"/>
<path d="M166.126 278.865C165.981 278.865 165.836 278.852 165.694 278.827L151.59 276.339V253.042H167.115L166.731 253.49C161.383 259.724 165.412 269.832 168.29 275.302C168.502 275.703 168.596 276.156 168.562 276.608C168.529 277.06 168.368 277.493 168.098 277.857C167.873 278.169 167.576 278.423 167.233 278.598C166.891 278.773 166.511 278.865 166.126 278.865V278.865Z" fill="#2F2E41"/>
</g>
<defs>
<clipPath id="clip0">
<rect width="415.99" height="360.306" fill="white" transform="translate(50.7704)"/>
</clipPath>
</defs>
</svg>
