<svg id="drawing" stroke="black" stroke-width="1px" width="1440" height="636" viewBox="0 0 1440 636" fill="none" xmlns="http://www.w3.org/2000/svg">
<g clip-path="url(#clip0)">
<path d="M846.739 252.133C846.739 252.133 840.664 237.2 858.888 226.001L846.739 252.133Z" fill="#E6E6E6"/>
<path d="M839.268 251.861C839.268 251.861 837.415 241.218 823.072 241.309L839.268 251.861Z" fill="#E6E6E6"/>
<path d="M976.288 252.133C976.288 252.133 968.262 232.405 992.339 217.609L976.288 252.133Z" fill="#E6E6E6"/>
<path d="M966.417 251.774C966.417 251.774 963.969 237.713 945.02 237.834Z" fill="#E6E6E6"/>
<path d="M936.781 243.124L932.123 244.852L923.23 227.732L930.106 225.181L936.781 243.124Z" fill="#FFB7B7"/>
<path d="M939.647 247.192L924.627 252.765L924.556 252.576C923.98 251.027 924.043 249.314 924.732 247.812C925.421 246.31 926.679 245.144 928.23 244.568L928.23 244.568L937.404 241.164L939.647 247.192Z" fill="#2F2E41"/>
<path d="M890.938 247.955L885.968 247.954L883.604 228.813L890.939 228.814L890.938 247.955Z" fill="#FFB7B7"/>
<path d="M891.8 252.765L875.776 252.765V252.562C875.776 250.911 876.433 249.326 877.603 248.158C878.773 246.991 880.359 246.334 882.013 246.334H882.013L891.8 246.335L891.8 252.765Z" fill="#2F2E41"/>
<path d="M913.69 115.201L912.068 111.963L898.286 118.844L898.692 121.678L896.057 125.119C896.057 125.119 891.598 127.547 892.409 135.643L893.22 143.334L894.233 153.251L887.139 177.74L883.491 210.123L880.857 236.232L893.625 235.625L905.38 193.122L926.053 238.863L940.24 235.22L920.783 189.884L918.351 170.859C918.351 170.859 919.972 160.74 912.271 153.858L913.487 150.215V145.726L917.54 124.309L913.69 115.201Z" fill="#2F2E41"/>
<path opacity="0.2" d="M914.068 161.485L905.151 193.058L905.609 193.187L914.527 161.614L914.068 161.485Z" fill="black"/>
<path d="M913.284 153.251H893.422V155.275H913.284V153.251Z" fill="#3F3D56"/>
<path d="M893.422 156.489C893.87 156.489 894.233 155.583 894.233 154.465C894.233 153.347 893.87 152.441 893.422 152.441C892.975 152.441 892.612 153.347 892.612 154.465C892.612 155.583 892.975 156.489 893.422 156.489Z" fill="#3F3D56"/>
<path d="M907.562 109.966C912.798 107.108 914.722 100.552 911.86 95.3232C908.997 90.0945 902.432 88.1729 897.197 91.0312C891.961 93.8894 890.036 100.445 892.898 105.674C895.761 110.903 902.326 112.824 907.562 109.966Z" fill="#FFB7B7"/>
<path d="M918.913 96.6469C924.192 96.6469 928.472 92.3733 928.472 87.1016C928.472 81.8299 924.192 77.5563 918.913 77.5563C913.634 77.5563 909.354 81.8299 909.354 87.1016C909.354 92.3733 913.634 96.6469 918.913 96.6469Z" fill="#2F2E41"/>
<path d="M931.043 86.0791C931.42 87.3438 931.53 88.6729 931.367 89.9823C931.204 91.2918 930.77 92.5532 930.094 93.687C929.418 94.8207 928.514 95.8022 927.439 96.5694C926.364 97.3365 925.141 97.8728 923.848 98.1443C922.555 98.4157 921.219 98.4165 919.926 98.1466C918.632 97.8767 917.409 97.3418 916.333 96.5759C915.257 95.81 914.351 94.8296 913.674 93.6967C912.997 92.5637 912.562 91.3028 912.397 89.9936C913.082 92.2899 914.606 94.245 916.668 95.4709C918.729 96.6967 921.177 97.1035 923.525 96.6106C925.873 96.1177 927.949 94.7611 929.342 92.8101C930.735 90.8591 931.342 88.4564 931.043 86.0791V86.0791Z" fill="#2F2E41"/>
<path d="M893.281 97.5031C893 99.9704 893.543 102.461 894.824 104.59C896.105 106.718 898.053 108.365 900.366 109.276C902.679 110.186 905.229 110.309 907.62 109.626C910.01 108.943 912.109 107.491 913.589 105.497C915.07 103.502 915.851 101.075 915.81 98.5918C915.769 96.1089 914.91 93.7088 913.365 91.7632C911.819 89.8177 909.675 88.4353 907.263 87.8304C904.851 87.2255 902.307 87.4319 900.025 88.4174C898.137 86.8972 895.797 87.3684 893.894 88.9727C891.743 90.7868 891.104 92.033 889.435 95.0163C891.076 95.2464 891.64 97.273 893.281 97.5031Z" fill="#2F2E41"/>
<path d="M932.997 129.951C932.876 133.149 932.637 139.443 932.637 139.764C932.637 140.102 927.858 149.982 925.794 154.234V154.236C925.647 154.536 925.516 154.808 925.399 155.047C925.239 155.377 924.988 155.654 924.676 155.846C924.363 156.038 924.002 156.136 923.635 156.129L914.614 155.968C914.118 155.959 913.645 155.76 913.293 155.411C912.941 155.062 912.737 154.591 912.725 154.096L911.718 114.463C911.715 114.332 911.738 114.202 911.786 114.081C911.834 113.959 911.905 113.848 911.997 113.754C912.088 113.661 912.197 113.586 912.318 113.536C912.438 113.485 912.568 113.458 912.699 113.458H924.332C924.824 113.459 925.305 113.597 925.721 113.858C926.138 114.119 926.472 114.491 926.686 114.933L932.269 126.469C932.793 127.553 933.043 128.748 932.997 129.951V129.951Z" fill="#6C63FF"/>
<path d="M912.568 151.376C910.253 149.976 908.173 148.22 906.404 146.174C902.293 141.558 899.793 135.734 899.28 129.578C898.821 124.311 899.868 120.396 902.39 117.941C905.597 114.821 909.962 115.274 910.146 115.295L910.341 115.317L913.298 117.816L912.462 118.804L909.816 116.568C909.006 116.527 905.699 116.519 903.284 118.878C901.061 121.05 900.148 124.612 900.57 129.466C901.059 135.327 903.433 140.874 907.338 145.277C909.023 147.223 910.998 148.898 913.193 150.243L912.568 151.376Z" fill="#6C63FF"/>
<path d="M929.354 136.319L913.592 139.552L913.679 139.974L929.441 136.742L929.354 136.319Z" fill="#3F3D56"/>
<path d="M918.965 113.45L918.534 113.467L919.558 138.513L919.989 138.496L918.965 113.45Z" fill="#3F3D56"/>
<path d="M932.997 129.951C932.876 133.149 932.636 139.443 932.636 139.764C932.636 140.102 927.858 149.982 925.794 154.234L929.642 131.924C929.79 131.066 930.165 130.262 930.727 129.596C931.289 128.929 932.018 128.424 932.839 128.131C932.969 128.729 933.022 129.34 932.997 129.951Z" fill="#3F3D56"/>
<path d="M909.357 176.707C909.698 176.269 909.938 175.761 910.061 175.22C910.184 174.679 910.187 174.117 910.069 173.575C909.951 173.033 909.716 172.523 909.379 172.081C909.043 171.64 908.613 171.277 908.121 171.019L908.903 162.381L903.762 160.626L902.83 172.841C902.45 173.695 902.398 174.658 902.683 175.548C902.968 176.438 903.569 177.193 904.374 177.669C905.178 178.146 906.13 178.311 907.049 178.134C907.967 177.957 908.789 177.449 909.357 176.707V176.707Z" fill="#FFB7B7"/>
<path d="M910.029 168.348L900.92 168.018L901.305 124.148C901.298 122.907 901.683 121.695 902.404 120.683C903.125 119.672 904.146 118.912 905.322 118.512C906.422 118.147 907.61 118.146 908.71 118.509C909.958 118.931 911.03 119.755 911.756 120.853C912.483 121.951 912.823 123.258 912.722 124.57L910.029 168.348Z" fill="#CBCBCB"/>
<path d="M989.944 252.915H808.451C808.324 252.915 808.203 252.864 808.114 252.775C808.024 252.686 807.974 252.565 807.974 252.439C807.974 252.313 808.024 252.192 808.114 252.102C808.203 252.013 808.324 251.963 808.451 251.963H989.944C990.07 251.963 990.191 252.013 990.281 252.102C990.37 252.192 990.42 252.313 990.42 252.439C990.42 252.565 990.37 252.686 990.281 252.775C990.191 252.864 990.07 252.915 989.944 252.915Z" fill="#CBCBCB"/>
<path d="M346.878 513.533C346.884 512.69 346.716 511.854 346.385 511.078C346.053 510.303 345.565 509.604 344.951 509.025C344.337 508.446 343.611 508 342.817 507.715C342.023 507.43 341.179 507.311 340.337 507.367C339.496 507.423 338.674 507.651 337.925 508.038C337.176 508.426 336.514 508.963 335.982 509.617C335.449 510.272 335.057 511.029 334.831 511.841C334.604 512.654 334.547 513.504 334.664 514.34L317.033 537.429C316.28 538.934 315.989 540.627 316.194 542.296C316.4 543.966 317.093 545.538 318.188 546.815L319.571 548.429L325.917 547.16L333.109 540.813L332.263 533.621L341.148 519.66L341.136 519.65C342.692 519.551 344.151 518.863 345.217 517.727C346.284 516.591 346.878 515.091 346.878 513.533V513.533Z" fill="#FFB9B9"/>
<path d="M224.952 626.412L222.074 615.723L261.933 599.537L266.18 615.312L224.952 626.412Z" fill="#FFB8B8"/>
<path d="M215.325 631.928L206.045 597.463L206.481 597.345C210.039 596.387 213.831 596.882 217.024 598.72C220.218 600.559 222.55 603.59 223.508 607.148L223.508 607.149L229.176 628.199L215.325 631.928Z" fill="#2F2E41"/>
<path d="M279.856 624.704L270.904 618.194L291.755 580.565L304.968 590.173L279.856 624.704Z" fill="#FFB8B8"/>
<path d="M275.829 635.043L246.962 614.05L247.227 613.685C249.395 610.705 252.657 608.709 256.296 608.134C259.935 607.559 263.654 608.453 266.634 610.62L266.635 610.62L284.265 623.442L275.829 635.043Z" fill="#2F2E41"/>
<path d="M355.956 572.121L333.427 550.236C331.461 548.326 328.872 547.19 326.135 547.037C323.398 546.884 320.698 547.725 318.531 549.404L275.995 596.659L279.802 602.582L320.417 575.082L347.917 611.043L374.148 597.928L355.956 572.121Z" fill="#2F2E41"/>
<path d="M346.225 576.775L329.725 575.505L317.776 572.609C317.101 571.556 316.12 570.734 314.965 570.254C313.811 569.773 312.537 569.657 311.314 569.921C310.091 570.185 308.979 570.816 308.124 571.729C307.27 572.643 306.716 573.796 306.535 575.033C306.354 576.271 306.555 577.534 307.112 578.654C307.669 579.774 308.555 580.697 309.651 581.299C310.747 581.902 312.001 582.155 313.245 582.026C314.489 581.896 315.663 581.389 316.611 580.574L316.61 580.582L323.802 583.544L354.686 594.121L358.494 591.159L346.225 576.775Z" fill="#FFB9B9"/>
<path d="M385.994 622.467L376.686 628.39H365.686L314.494 609.352L239.61 622.89L237.495 606.813L306.033 576.775L366.109 596.659L385.994 622.467Z" fill="#2F2E41"/>
<path d="M366.11 519.66C375.222 519.66 382.609 512.273 382.609 503.16C382.609 494.047 375.222 486.66 366.11 486.66C356.997 486.66 349.61 494.047 349.61 503.16C349.61 512.273 356.997 519.66 366.11 519.66Z" fill="#FFB9B9"/>
<path d="M408.802 569.037C408.802 578.995 407.233 588.89 404.152 598.36L402.917 602.159L396.994 629.236L390.648 630.928L385.994 625.005L376.686 618.236L369.917 607.236L364.113 597.564L362.302 594.544L355.956 562.813L331.841 549.275L323.802 548.006L325.494 543.352L332.687 533.621L339.879 532.775L341.994 531.083L343.687 531.929L353.015 535.523L383.261 522.744L387.686 523.467L402.917 536.16C406.81 546.683 408.803 557.815 408.802 569.037V569.037Z" fill="#CCCCCC"/>
<path opacity="0.1" d="M404.186 565.352L388.109 575.928L364.113 597.564L362.302 594.544L357.225 569.159H358.494L371.61 545.044L404.186 565.352Z" fill="black"/>
<path d="M371.61 542.506L358.494 566.621L350.879 575.082L344.11 576.775L362.302 596.659L388.109 573.39L404.186 562.813L371.61 542.506Z" fill="#CCCCCC"/>
<path d="M353.276 490.892L351.488 491.579C351.217 491.396 350.984 491.16 350.804 490.887C350.623 490.613 350.498 490.307 350.436 489.985C350.375 489.663 350.377 489.332 350.442 489.011C350.508 488.69 350.637 488.385 350.821 488.114C350.83 488.099 350.84 488.085 350.85 488.071L347.546 487.917C349.667 485.092 352.363 482.75 355.457 481.046C358.55 479.341 361.971 478.313 365.491 478.029C369.012 477.746 372.553 478.213 375.879 479.4C379.206 480.587 382.242 482.467 384.788 484.915C384.939 484.397 386.578 485.405 387.248 486.427C387.472 485.584 389.01 489.659 389.554 492.539C389.805 491.58 390.773 493.128 389.925 494.614C390.463 494.535 390.705 495.91 390.289 496.676C390.877 496.4 390.778 498.041 390.141 499.137C390.979 499.063 390.069 516.339 377.482 515.08C376.606 511.054 376.852 511.304 375.821 506.126C375.34 505.617 374.814 505.152 374.289 504.689L371.449 502.182C368.147 499.267 365.142 495.669 360.743 494.579C357.72 493.831 355.808 493.662 357.456 490.255C355.967 490.876 354.577 491.8 353.075 492.377C353.095 491.901 353.305 491.368 353.276 490.892Z" fill="#2F2E41"/>
<path d="M374.359 508.025C375.995 508.025 377.321 506.699 377.321 505.064C377.321 503.428 375.995 502.102 374.359 502.102C372.724 502.102 371.398 503.428 371.398 505.064C371.398 506.699 372.724 508.025 374.359 508.025Z" fill="#FFB9B9"/>
<path d="M993.007 252.347H423.841C421.784 252.347 419.747 252.753 417.846 253.54C415.946 254.328 414.219 255.483 412.764 256.938C411.309 258.394 410.155 260.122 409.368 262.023C408.581 263.925 408.176 265.963 408.176 268.022V585.325C408.176 587.383 408.581 589.421 409.368 591.323C410.155 593.225 411.309 594.953 412.764 596.408C414.219 597.864 415.946 599.018 417.846 599.806C419.747 600.594 421.784 600.999 423.841 600.999H993.007C997.162 600.999 1001.15 599.348 1004.08 596.408C1007.02 593.469 1008.67 589.482 1008.67 585.325V268.022C1008.67 263.864 1007.02 259.878 1004.08 256.938C1001.15 253.999 997.162 252.347 993.007 252.347V252.347Z" fill="#3F3D56"/>
<path d="M987.67 280.048H429.179V595.268H987.67V280.048Z" fill="white"/>
<path d="M707.947 271.452C711.11 271.452 713.675 268.886 713.675 265.72C713.675 262.555 711.11 259.989 707.947 259.989C704.783 259.989 702.219 262.555 702.219 265.72C702.219 268.886 704.783 271.452 707.947 271.452Z" fill="white"/>
<path d="M827.951 595.269H429.179V280.049L827.951 595.269Z" fill="#F2F2F2"/>
<path d="M503.537 571.833C525.913 571.833 544.051 553.694 544.051 531.318C544.051 508.943 525.913 490.804 503.537 490.804C481.161 490.804 463.023 508.943 463.023 531.318C463.023 553.694 481.161 571.833 503.537 571.833Z" fill="#6C63FF"/>
<path d="M948.157 298.913H926.354V320.727H948.157V298.913Z" fill="#6C63FF"/>
<path d="M958.279 330.855H931.805V304.366H958.279V330.855ZM932.956 329.703H957.128V305.518H932.956L932.956 329.703Z" fill="#CCCCCC"/>
<path d="M1024.35 589.537H969.849V585.608C969.849 585.505 969.829 585.404 969.79 585.309C969.751 585.215 969.693 585.129 969.621 585.057C969.549 584.984 969.463 584.927 969.368 584.888C969.274 584.849 969.173 584.828 969.07 584.828H950.383C950.281 584.828 950.179 584.849 950.085 584.888C949.99 584.927 949.905 584.984 949.832 585.057C949.76 585.129 949.703 585.215 949.664 585.309C949.624 585.404 949.604 585.505 949.604 585.608V589.537H937.925V585.608C937.925 585.505 937.905 585.404 937.865 585.309C937.826 585.215 937.769 585.129 937.697 585.057C937.624 584.984 937.538 584.927 937.444 584.888C937.35 584.849 937.248 584.828 937.146 584.828H918.459C918.356 584.828 918.255 584.849 918.161 584.888C918.066 584.927 917.98 584.984 917.908 585.057C917.836 585.129 917.778 585.215 917.739 585.309C917.7 585.404 917.68 585.505 917.68 585.608V585.608V589.537H906V585.608C906 585.505 905.98 585.404 905.941 585.309C905.902 585.215 905.845 585.129 905.772 585.057C905.7 584.984 905.614 584.927 905.52 584.888C905.425 584.849 905.324 584.828 905.222 584.828H886.534C886.432 584.828 886.331 584.849 886.236 584.888C886.142 584.927 886.056 584.984 885.984 585.057C885.911 585.129 885.854 585.215 885.815 585.309C885.776 585.404 885.756 585.505 885.756 585.608V585.608V589.537H874.076V585.608C874.076 585.505 874.056 585.404 874.017 585.309C873.978 585.215 873.92 585.129 873.848 585.057C873.776 584.984 873.69 584.927 873.595 584.888C873.501 584.849 873.4 584.828 873.297 584.828H854.61C854.508 584.828 854.406 584.849 854.312 584.888C854.217 584.927 854.132 584.984 854.059 585.057C853.987 585.129 853.93 585.215 853.89 585.309C853.851 585.404 853.831 585.505 853.831 585.608V589.537H842.152V585.608C842.152 585.505 842.131 585.404 842.092 585.309C842.053 585.215 841.996 585.129 841.923 585.057C841.851 584.984 841.765 584.927 841.671 584.888C841.576 584.849 841.475 584.828 841.373 584.828H822.685C822.583 584.828 822.482 584.849 822.387 584.888C822.293 584.927 822.207 584.984 822.135 585.057C822.063 585.129 822.005 585.215 821.966 585.309C821.927 585.404 821.907 585.505 821.907 585.608V585.608V589.537H810.227V585.608C810.227 585.505 810.207 585.404 810.168 585.309C810.129 585.215 810.071 585.129 809.999 585.057C809.927 584.984 809.841 584.927 809.746 584.888C809.652 584.849 809.551 584.828 809.448 584.828H790.761C790.659 584.828 790.557 584.849 790.463 584.888C790.369 584.927 790.283 584.984 790.21 585.057C790.138 585.129 790.081 585.215 790.042 585.309C790.002 585.404 789.982 585.505 789.982 585.608V585.608V589.537H778.303V585.608C778.303 585.505 778.283 585.404 778.243 585.309C778.204 585.215 778.147 585.129 778.075 585.057C778.002 584.984 777.917 584.927 777.822 584.888C777.728 584.849 777.626 584.828 777.524 584.828H631.139C631.037 584.828 630.935 584.849 630.841 584.888C630.746 584.927 630.661 584.984 630.588 585.057C630.516 585.129 630.459 585.215 630.42 585.309C630.38 585.404 630.36 585.505 630.36 585.608V585.608V589.537H618.681V585.608C618.681 585.505 618.66 585.404 618.621 585.309C618.582 585.215 618.525 585.129 618.453 585.057C618.38 584.984 618.294 584.927 618.2 584.888C618.105 584.849 618.004 584.828 617.902 584.828H599.215C599.112 584.828 599.011 584.849 598.917 584.888C598.822 584.927 598.736 584.984 598.664 585.057C598.592 585.129 598.534 585.215 598.495 585.309C598.456 585.404 598.436 585.505 598.436 585.608V585.608V589.537H586.756V585.608C586.756 585.505 586.736 585.404 586.697 585.309C586.658 585.215 586.601 585.129 586.528 585.057C586.456 584.984 586.37 584.927 586.276 584.888C586.181 584.849 586.08 584.828 585.978 584.828H567.29C567.188 584.828 567.087 584.849 566.992 584.888C566.898 584.927 566.812 584.984 566.74 585.057C566.667 585.129 566.61 585.215 566.571 585.309C566.532 585.404 566.511 585.505 566.511 585.608V585.608V589.537H554.832V585.608C554.832 585.505 554.812 585.404 554.773 585.309C554.733 585.215 554.676 585.129 554.604 585.057C554.531 584.984 554.446 584.927 554.351 584.888C554.257 584.849 554.155 584.828 554.053 584.828H535.366C535.263 584.828 535.162 584.849 535.068 584.888C534.973 584.927 534.887 584.984 534.815 585.057C534.743 585.129 534.685 585.215 534.646 585.309C534.607 585.404 534.587 585.505 534.587 585.608V585.608V589.537H522.907V585.608C522.907 585.505 522.887 585.404 522.848 585.309C522.809 585.215 522.752 585.129 522.679 585.057C522.607 584.984 522.521 584.927 522.427 584.888C522.332 584.849 522.231 584.828 522.129 584.828H503.441C503.339 584.828 503.238 584.849 503.143 584.888C503.049 584.927 502.963 584.984 502.891 585.057C502.818 585.129 502.761 585.215 502.722 585.309C502.683 585.404 502.663 585.505 502.663 585.608V585.608V589.537H490.983V585.608C490.983 585.505 490.963 585.404 490.924 585.309C490.885 585.215 490.827 585.129 490.755 585.057C490.683 584.984 490.597 584.927 490.502 584.888C490.408 584.849 490.307 584.828 490.204 584.828H471.517C471.31 584.828 471.112 584.911 470.966 585.057C470.82 585.203 470.738 585.401 470.738 585.608V589.537H459.059V585.608C459.059 585.505 459.038 585.404 458.999 585.309C458.96 585.215 458.903 585.129 458.831 585.057C458.758 584.984 458.672 584.927 458.578 584.888C458.483 584.849 458.382 584.828 458.28 584.828H439.592C439.386 584.828 439.188 584.911 439.042 585.057C438.896 585.203 438.814 585.401 438.814 585.608V589.537H402.996C398.04 589.537 393.287 591.507 389.782 595.013C386.278 598.52 384.309 603.276 384.309 608.235V616.689C384.309 621.648 386.278 626.404 389.782 629.911C393.287 633.417 398.04 635.387 402.996 635.387H1024.35C1029.31 635.387 1034.06 633.417 1037.57 629.911C1041.07 626.404 1043.04 621.648 1043.04 616.689V608.235C1043.04 605.779 1042.56 603.348 1041.62 601.079C1040.68 598.811 1039.3 596.749 1037.57 595.013C1035.83 593.277 1033.77 591.9 1031.51 590.96C1029.24 590.02 1026.81 589.537 1024.35 589.537V589.537Z" fill="#3F3D56"/>
<path d="M508.062 327.822L518.195 317.721L508.062 307.619L511.151 304.54L524.373 317.721L511.151 330.901L508.062 327.822Z" fill="#6C63FF"/>
<path d="M479.127 318.441H483.246V314.323H479.127L479.127 318.441ZM499.804 314.323H495.685V318.441H499.804V314.323ZM487.406 318.441H491.525V314.323H487.406V318.441Z" fill="#6C63FF"/>
<path d="M473.546 327.719L463.403 317.618L473.535 307.516L470.446 304.437L457.235 317.618L470.456 330.798L473.546 327.719Z" fill="#6C63FF"/>
<g clip-path="url(#clip1)">
<path d="M1085.93 537.027C1115.53 537.027 1139.53 513.025 1139.53 483.418C1139.53 453.81 1115.53 429.809 1085.93 429.809C1056.32 429.809 1032.32 453.81 1032.32 483.418C1032.32 513.025 1056.32 537.027 1085.93 537.027Z" fill="#F0F0F0"/>
<path d="M1086.07 483.418H1086.22L1088.87 635.409H1083.27L1086.07 483.418Z" fill="#F0F0F0"/>
<path d="M1201.02 563.652C1222.62 563.652 1240.13 546.146 1240.13 524.551C1240.13 502.956 1222.62 485.45 1201.02 485.45C1179.43 485.45 1161.92 502.956 1161.92 524.551C1161.92 546.146 1179.43 563.652 1201.02 563.652Z" fill="#F0F0F0"/>
<path d="M1201.13 524.551H1201.24L1203.17 635.409H1199.09L1201.13 524.551Z" fill="#F0F0F0"/>
<path d="M1151.78 470.806C1200.92 470.806 1240.75 430.972 1240.75 381.834C1240.75 332.696 1200.92 292.862 1151.78 292.862C1102.64 292.862 1062.81 332.696 1062.81 381.834C1062.81 430.972 1102.64 470.806 1151.78 470.806Z" fill="#6C63FF"/>
<path opacity="0.1" d="M1217.47 322.407C1225.77 341.82 1226.9 363.552 1220.65 383.719C1214.4 403.885 1201.19 421.173 1183.36 432.493C1165.54 443.812 1144.28 448.426 1123.37 445.51C1102.46 442.593 1083.26 432.337 1069.22 416.573C1074.29 428.433 1081.88 439.05 1091.46 447.687C1101.04 456.324 1112.38 462.775 1124.7 466.593C1137.02 470.41 1150.03 471.504 1162.81 469.797C1175.6 468.091 1187.86 463.625 1198.75 456.709C1209.63 449.794 1218.89 440.594 1225.87 429.746C1232.85 418.899 1237.38 406.664 1239.17 393.889C1240.95 381.114 1239.93 368.104 1236.18 355.762C1232.44 343.419 1226.05 332.038 1217.47 322.407V322.407Z" fill="black"/>
<path d="M1151.53 381.833H1151.29L1146.89 634.084H1156.18L1151.53 381.833Z" fill="#3F3D56"/>
<path d="M1426.78 635.329H1030.71C1030.58 635.329 1030.46 635.278 1030.37 635.187C1030.28 635.096 1030.23 634.973 1030.23 634.845C1030.23 634.717 1030.28 634.594 1030.37 634.503C1030.46 634.412 1030.58 634.361 1030.71 634.361H1426.78C1426.91 634.361 1427.03 634.412 1427.13 634.503C1427.22 634.594 1427.27 634.717 1427.27 634.845C1427.27 634.973 1427.22 635.096 1427.13 635.187C1427.03 635.278 1426.91 635.329 1426.78 635.329Z" fill="#CACACA"/>
<path d="M1357.54 630.432H1352.8L1350.54 612.156H1357.54L1357.54 630.432Z" fill="#FFB6B6"/>
<path d="M1358.74 635.025L1343.47 635.024V634.831C1343.47 633.254 1344.09 631.741 1345.21 630.626C1346.32 629.511 1347.84 628.885 1349.41 628.885H1349.41L1358.74 628.885L1358.74 635.025Z" fill="#2F2E41"/>
<path d="M1379.51 630.432H1374.77L1372.52 612.156H1379.51L1379.51 630.432Z" fill="#FFB6B6"/>
<path d="M1380.72 635.025L1365.44 635.024V634.831C1365.44 633.254 1366.06 631.741 1367.18 630.626C1368.3 629.511 1369.81 628.885 1371.38 628.885H1371.39L1380.72 628.885L1380.72 635.025Z" fill="#2F2E41"/>
<path d="M1299.97 630.432H1304.71L1305.59 612.058L1299.97 612.156L1299.97 630.432Z" fill="#FFB6B6"/>
<path d="M1298.77 628.885L1308.1 628.885H1308.1C1309.67 628.885 1311.19 629.511 1312.3 630.626C1313.42 631.741 1314.04 633.254 1314.04 634.831V635.024L1298.77 635.025L1298.77 628.885Z" fill="#2F2E41"/>
<path d="M1280.82 630.432H1285.56L1286.5 612.058L1280.82 612.156L1280.82 630.432Z" fill="#FFB6B6"/>
<path d="M1279.61 628.885L1288.94 628.885H1288.94C1290.52 628.885 1292.03 629.511 1293.15 630.626C1294.26 631.741 1294.89 633.254 1294.89 634.831V635.024L1279.61 635.025L1279.61 628.885Z" fill="#2F2E41"/>
<path d="M1321.84 553C1321.66 552.542 1321.59 552.05 1321.62 551.559C1321.65 551.069 1321.79 550.591 1322.03 550.161C1322.27 549.731 1322.6 549.358 1322.99 549.068C1323.39 548.778 1323.85 548.58 1324.33 548.485L1340.51 522.479L1345.97 527.336L1328.35 551.372C1328.46 552.193 1328.26 553.024 1327.79 553.708C1327.32 554.391 1326.62 554.879 1325.82 555.08C1325.02 555.28 1324.17 555.18 1323.43 554.796C1322.7 554.413 1322.13 553.774 1321.84 553V553Z" fill="#FFB6B6"/>
<path d="M1395.77 562.625C1395.32 562.427 1394.92 562.132 1394.6 561.762C1394.28 561.392 1394.04 560.955 1393.9 560.483C1393.76 560.01 1393.73 559.514 1393.81 559.028C1393.89 558.542 1394.07 558.079 1394.34 557.672L1387.39 527.843L1394.69 527.412L1399.23 556.868C1399.88 557.375 1400.33 558.104 1400.48 558.917C1400.64 559.731 1400.48 560.572 1400.06 561.282C1399.63 561.991 1398.96 562.52 1398.17 562.768C1397.38 563.016 1396.53 562.965 1395.77 562.625V562.625Z" fill="#FFB6B6"/>
<path d="M1326.97 551.717C1326.96 551.168 1326.82 550.63 1326.57 550.141C1326.32 549.651 1325.96 549.222 1325.53 548.885C1325.1 548.547 1324.6 548.308 1324.06 548.185C1323.53 548.062 1322.97 548.057 1322.43 548.172L1315.52 536.756L1312.54 543.023L1319.57 552.903C1319.82 553.793 1320.39 554.558 1321.17 555.055C1321.95 555.552 1322.89 555.746 1323.8 555.6C1324.71 555.453 1325.54 554.977 1326.12 554.262C1326.71 553.546 1327.01 552.641 1326.97 551.717V551.717Z" fill="#FFB6B6"/>
<path d="M1269.17 563.658C1269.49 563.214 1269.71 562.704 1269.81 562.165C1269.92 561.626 1269.9 561.071 1269.77 560.538C1269.64 560.005 1269.39 559.508 1269.04 559.082C1268.7 558.656 1268.26 558.31 1267.77 558.071L1269.34 544.815L1263.14 547.926L1262.6 560.037C1262.25 560.894 1262.23 561.848 1262.54 562.72C1262.85 563.591 1263.46 564.319 1264.27 564.765C1265.08 565.212 1266.03 565.345 1266.93 565.141C1267.83 564.937 1268.63 564.41 1269.17 563.658V563.658Z" fill="#FFB6B6"/>
<path d="M1353.78 550.23L1351.77 554.312L1350.19 623.665L1360.53 624.422L1370.23 573.558L1372.57 623.665L1381.07 623.746L1390.27 555.41L1353.78 550.23Z" fill="#2F2E41"/>
<path d="M1302.75 550.23L1306.11 552.217C1306.11 552.217 1308.83 553.953 1307.92 566.024C1307 578.095 1305.9 626.457 1305.9 626.457H1299.96L1290.32 568.686L1286.81 627.083L1280.55 626.77C1280.55 626.77 1267.76 560.285 1273.29 553.069L1302.75 550.23Z" fill="#2F2E41"/>
<path d="M1353.05 500.284L1364.34 496.515L1378.21 496.719L1387.64 500.484L1390.27 555.41C1390.27 555.41 1369.62 567.778 1351.77 554.312L1353.05 500.284Z" fill="#E4E4E4"/>
<path d="M1353.05 499.8C1353.05 499.8 1348.59 499.278 1346.11 506.673C1343.62 514.068 1337.06 524.072 1337.06 524.072L1344.24 530.808L1358.61 510.882L1353.05 499.8Z" fill="#E4E4E4"/>
<path d="M1384.14 501.522L1387.64 500.484C1387.64 500.484 1395.58 501.542 1395.89 510.082C1396.21 518.621 1397.71 531.985 1397.71 531.985L1389.62 533.599L1384.14 501.522Z" fill="#E4E4E4"/>
<path d="M1271.27 507.512C1271.27 507.512 1287.59 502.266 1300.75 507.157L1299.67 532.55L1307.79 552.358C1307.79 552.358 1281.98 562.372 1273.37 553.956L1275.88 534.115L1271.27 507.512Z" fill="#6C63FF"/>
<path d="M1296.36 510.139L1299.78 507.157C1299.78 507.157 1302.06 507.13 1304.03 510.639C1305.99 514.148 1309.55 525.474 1309.55 525.474L1320.93 544.758L1315.92 548.201L1297.87 522.95L1296.36 510.139Z" fill="#6C63FF"/>
<path d="M1271.87 508.764L1272.11 507.173C1272.11 507.173 1265.75 507.643 1265.21 513.769C1264.67 519.895 1262.71 554.462 1262.71 554.462L1269 555.714L1275.25 520.236L1271.87 508.764Z" fill="#6C63FF"/>
<path d="M1372.18 491.456C1378 491.456 1382.73 486.731 1382.73 480.904C1382.73 475.077 1378 470.353 1372.18 470.353C1366.35 470.353 1361.62 475.077 1361.62 480.904C1361.62 486.731 1366.35 491.456 1372.18 491.456Z" fill="#FFB6B6"/>
<path d="M1293.91 498.334L1274.84 502.09C1274.45 502.166 1274.04 502.085 1273.71 501.862C1273.38 501.639 1273.15 501.293 1273.07 500.901L1271.45 492.68C1271.17 491.233 1271.17 489.744 1271.46 488.299C1271.75 486.853 1272.32 485.479 1273.14 484.254C1274.8 481.781 1277.38 480.069 1280.3 479.494C1283.22 478.918 1286.25 479.527 1288.72 481.186C1291.2 482.846 1292.91 485.419 1293.48 488.341L1295.1 496.562C1295.18 496.955 1295.1 497.362 1294.87 497.694C1294.65 498.026 1294.31 498.256 1293.91 498.334V498.334Z" fill="#2F2E41"/>
<path d="M1285.01 499.73C1289.56 499.73 1293.24 496.044 1293.24 491.498C1293.24 486.951 1289.56 483.265 1285.01 483.265C1280.47 483.265 1276.78 486.951 1276.78 491.498C1276.78 496.044 1280.47 499.73 1285.01 499.73Z" fill="#FFB6B6"/>
<path d="M1296.25 488.65L1284.59 490.947L1284.14 489.296L1283.87 491.088L1282.08 491.442L1281.18 488.17L1280.65 491.722L1277.18 492.406L1277.15 492.242C1276.69 489.931 1277.18 487.534 1278.49 485.579C1279.8 483.624 1281.83 482.268 1284.14 481.811L1285.79 481.487C1288.1 481.035 1290.5 481.517 1292.45 482.829C1294.41 484.141 1295.76 486.176 1296.22 488.486L1296.25 488.65Z" fill="#2F2E41"/>
<path d="M1286.54 501.379C1286.46 501.396 1286.37 501.406 1286.28 501.408L1277.44 501.583L1274.66 487.468L1284.06 485.617L1283.88 485.934C1281.39 490.348 1285.03 495.992 1287.43 498.963C1287.61 499.181 1287.72 499.443 1287.75 499.721C1287.78 499.999 1287.74 500.281 1287.62 500.534C1287.52 500.75 1287.37 500.939 1287.18 501.086C1287 501.233 1286.78 501.333 1286.54 501.379V501.379Z" fill="#2F2E41"/>
<path d="M1361.91 471.392C1363.2 470.995 1364.59 471.192 1365.91 471.486L1365.78 471.806C1368.93 469.984 1372.67 468.976 1376.24 469.674C1379.8 470.372 1383.09 473 1383.95 476.531C1384.27 477.942 1384.29 479.402 1384.01 480.821C1383.63 482.905 1382.82 484.886 1381.63 486.634C1380.43 488.383 1378.88 489.86 1377.08 490.968C1376.62 491.242 1375.93 491.437 1375.66 490.982C1375.36 490.464 1376.04 489.938 1376.24 489.373C1376.47 488.756 1376.06 488.071 1375.53 487.68C1375.01 487.289 1374.36 487.087 1373.81 486.731C1373.26 486.332 1372.8 485.824 1372.45 485.238C1372.11 484.651 1371.89 484 1371.81 483.325C1371.67 481.975 1371.71 480.612 1371.94 479.274C1369.82 480.049 1367.59 480.478 1365.33 480.544C1364.53 480.617 1363.72 480.49 1362.99 480.174C1362.04 479.691 1361.47 478.711 1360.95 477.783C1360.73 477.394 1360.51 477.005 1360.3 476.617C1359.83 475.921 1359.54 475.117 1359.47 474.282C1359.47 472.932 1360.62 471.79 1361.91 471.392Z" fill="#2F2E41"/>
</g>
<g clip-path="url(#clip2)">
<path d="M587.367 245.009L589.072 240.625L572.967 231.965L570.45 238.435L587.367 245.009Z" fill="#FFB8B8"/>
<path d="M596.503 233.573C595.78 233.292 595.009 233.155 594.234 233.172C593.458 233.189 592.694 233.359 591.984 233.671C591.274 233.983 590.633 234.432 590.096 234.993C589.56 235.553 589.14 236.213 588.859 236.936L587.709 239.891L585.935 244.453L585.502 245.571L591.185 247.781L596.682 233.644L596.503 233.573Z" fill="#2F2E41"/>
<path d="M585.936 236.572L585.194 238.538L583.344 243.444L583.299 243.567C578.584 244.172 573.415 242.985 568.633 241.141C566.72 240.403 564.847 239.568 563.02 238.637C560.316 237.272 557.895 235.831 555.964 234.598C553.056 232.732 551.258 231.332 551.258 231.332C551.258 231.332 550.783 231.761 549.923 232.497C548.771 233.482 546.93 235.02 544.598 236.832C543.709 237.527 542.754 238.255 541.733 239.015C534.209 244.593 524.554 229.709 524.554 229.709C524.554 229.709 527.27 227.981 527.979 227.645C530.263 226.565 535.63 224.016 540.26 221.751C542.645 220.582 544.832 219.486 546.3 218.708C551.5 215.941 557.963 221.176 557.963 221.176L585.936 236.572Z" fill="#2F2E41"/>
<path opacity="0.14" d="M585.936 236.572L585.194 238.538L583.344 243.444L583.299 243.567C578.584 244.172 573.415 242.985 568.633 241.141C566.72 240.403 564.847 239.568 563.02 238.637C560.316 237.272 557.895 235.831 555.964 234.598C553.056 232.732 551.258 231.332 551.258 231.332C551.258 231.332 550.783 231.761 549.923 232.497C548.771 233.482 546.93 235.02 544.598 236.832C543.709 237.527 542.754 238.255 541.733 239.015C534.209 244.593 524.554 229.709 524.554 229.709C524.554 229.709 527.27 227.981 527.979 227.645C530.263 226.565 535.63 224.016 540.26 221.751C542.645 220.582 544.832 219.486 546.3 218.708C551.5 215.941 557.963 221.176 557.963 221.176L585.936 236.572Z" fill="black"/>
<path d="M490.657 132.216C527.185 132.216 556.797 102.619 556.797 66.1082C556.797 29.5977 527.185 0 490.657 0C454.129 0 424.518 29.5977 424.518 66.1082C424.518 102.619 454.129 132.216 490.657 132.216Z" fill="#6C63FF"/>
<path opacity="0.2" d="M441.822 21.9531C435.653 36.3775 434.816 52.5245 439.461 67.5088C444.106 82.4931 453.93 95.3384 467.178 103.749C480.426 112.16 496.235 115.588 511.779 113.421C527.323 111.254 541.59 103.633 552.03 91.9201C548.261 100.733 542.621 108.621 535.499 115.039C528.378 121.456 519.945 126.249 510.786 129.086C501.628 131.923 491.961 132.735 482.457 131.467C472.953 130.199 463.838 126.881 455.744 121.743C447.65 116.604 440.771 109.768 435.582 101.708C430.394 93.6487 427.021 84.5578 425.697 75.0657C424.372 65.5736 425.129 55.9071 427.913 46.7361C430.697 37.5651 435.443 29.1088 441.822 21.9531Z" fill="black"/>
<path d="M490.839 66.1079H491.021L494.291 253.536H487.387L490.839 66.1079Z" fill="#3F3D56"/>
<path d="M480.658 151.111L479.134 154.004L490.067 159.757L491.591 156.864L480.658 151.111Z" fill="#3F3D56"/>
<path d="M713.828 254.282H420.577C420.475 254.282 420.377 254.241 420.305 254.169C420.233 254.097 420.193 254 420.193 253.898C420.193 253.796 420.233 253.699 420.305 253.627C420.377 253.555 420.475 253.514 420.577 253.514H713.828C713.93 253.514 714.028 253.555 714.1 253.627C714.172 253.699 714.212 253.796 714.212 253.898C714.212 254 714.172 254.097 714.1 254.169C714.028 254.241 713.93 254.282 713.828 254.282Z" fill="#3F3D56"/>
<path d="M510.681 195.31H488.418C487.96 195.309 487.521 195.127 487.198 194.803C486.874 194.48 486.692 194.041 486.691 193.583V183.992C486.691 180.583 488.046 177.314 490.457 174.904C492.869 172.494 496.139 171.139 499.55 171.139C502.96 171.139 506.231 172.494 508.642 174.904C511.053 177.314 512.408 180.583 512.408 183.992V193.583C512.408 194.041 512.226 194.48 511.902 194.803C511.578 195.127 511.139 195.309 510.681 195.31Z" fill="#2F2E41"/>
<path d="M531.853 207.357C531.334 207.448 530.842 207.651 530.411 207.953C529.98 208.255 529.62 208.647 529.358 209.103C529.095 209.558 528.935 210.066 528.889 210.59C528.844 211.114 528.914 211.641 529.095 212.135L523.041 217.7L525.527 222.202L533.966 214.223C534.776 213.865 535.426 213.222 535.794 212.416C536.162 211.611 536.221 210.698 535.96 209.852C535.7 209.006 535.138 208.284 534.381 207.824C533.624 207.365 532.724 207.198 531.853 207.357Z" fill="#FFB8B8"/>
<path d="M513.637 232.66C513.364 232.66 513.09 232.648 512.816 232.624C511.183 232.488 509.611 231.939 508.248 231.03C506.886 230.12 505.776 228.879 505.025 227.424L495.326 208.765C494.691 207.543 494.551 206.123 494.937 204.8C495.322 203.477 496.203 202.354 497.396 201.664C498.589 200.974 500.003 200.77 501.342 201.095C502.682 201.419 503.844 202.248 504.588 203.408L513.536 223.474L525.711 213.587L532.76 216.33L520.855 229.467C519.94 230.471 518.825 231.273 517.583 231.823C516.34 232.373 514.996 232.658 513.637 232.66V232.66Z" fill="#CCCCCC"/>
<path d="M549.513 203.83L538.726 193.049C538.349 192.672 537.837 192.46 537.304 192.46C536.77 192.46 536.258 192.672 535.881 193.049L526.178 202.748C525.8 203.125 525.588 203.636 525.588 204.17C525.588 204.703 525.8 205.214 526.178 205.592L536.256 215.665C536.615 216.024 537.097 216.234 537.605 216.253C538.113 216.271 538.609 216.097 538.994 215.765L549.405 206.774C549.605 206.601 549.769 206.391 549.888 206.155C550.007 205.919 550.078 205.662 550.097 205.399C550.116 205.135 550.083 204.871 550 204.62C549.917 204.369 549.785 204.137 549.613 203.937C549.581 203.9 549.547 203.865 549.513 203.83Z" fill="#3F3D56"/>
<path d="M547.986 205.721L536.883 194.623L527.72 203.782L538.392 214.448L547.986 205.721Z" fill="#F2F2F2"/>
<path d="M537.67 208.951C540.16 208.951 542.179 206.933 542.179 204.444C542.179 201.955 540.16 199.938 537.67 199.938C535.18 199.938 533.161 201.955 533.161 204.444C533.161 206.933 535.18 208.951 537.67 208.951Z" fill="#6C63FF"/>
<path opacity="0.1" d="M539.677 208.285C540.431 207.577 540.918 206.631 541.057 205.606C541.196 204.581 540.978 203.539 540.439 202.656C539.901 201.772 539.074 201.101 538.099 200.755C537.124 200.408 536.059 200.408 535.084 200.753C535.611 200.384 536.211 200.132 536.843 200.015C537.476 199.897 538.126 199.915 538.751 200.07C539.376 200.224 539.96 200.51 540.465 200.908C540.97 201.307 541.383 201.809 541.678 202.381C541.973 202.952 542.141 203.581 542.173 204.223C542.205 204.865 542.098 205.507 541.861 206.105C541.624 206.702 541.262 207.243 540.799 207.689C540.336 208.135 539.782 208.477 539.176 208.692C539.352 208.568 539.52 208.432 539.677 208.285Z" fill="black"/>
<path d="M535.453 203.549C534.916 204.054 534.887 205.871 535.708 206.745C536.529 207.618 537.889 207.216 538.426 206.711C538.964 206.206 538.476 205.789 537.655 204.916C536.834 204.043 535.991 203.044 535.453 203.549Z" fill="#F2F2F2"/>
<path d="M540.03 205.853C540.768 205.853 541.366 205.255 541.366 204.518C541.366 203.78 540.768 203.182 540.03 203.182C539.293 203.182 538.695 203.78 538.695 204.518C538.695 205.255 539.293 205.853 540.03 205.853Z" fill="#2F2E41"/>
<path d="M537.629 203.299C538.367 203.299 538.965 202.701 538.965 201.963C538.965 201.226 538.367 200.628 537.629 200.628C536.892 200.628 536.293 201.226 536.293 201.963C536.293 202.701 536.892 203.299 537.629 203.299Z" fill="#2F2E41"/>
<path d="M540.03 204.851C540.215 204.851 540.364 204.702 540.364 204.518C540.364 204.333 540.215 204.184 540.03 204.184C539.846 204.184 539.696 204.333 539.696 204.518C539.696 204.702 539.846 204.851 540.03 204.851Z" fill="#F2F2F2"/>
<path d="M540.174 203.862C540.266 203.862 540.341 203.788 540.341 203.695C540.341 203.603 540.266 203.529 540.174 203.529C540.082 203.529 540.007 203.603 540.007 203.695C540.007 203.788 540.082 203.862 540.174 203.862Z" fill="#F2F2F2"/>
<path d="M537.773 201.308C537.865 201.308 537.94 201.233 537.94 201.141C537.94 201.049 537.865 200.974 537.773 200.974C537.681 200.974 537.606 201.049 537.606 201.141C537.606 201.233 537.681 201.308 537.773 201.308Z" fill="#F2F2F2"/>
<path d="M537.629 202.297C537.814 202.297 537.963 202.148 537.963 201.963C537.963 201.779 537.814 201.63 537.629 201.63C537.445 201.63 537.295 201.779 537.295 201.963C537.295 202.148 537.445 202.297 537.629 202.297Z" fill="#F2F2F2"/>
<path d="M586.007 251.175L588.044 246.935L572.651 237.064L569.645 243.322L586.007 251.175Z" fill="#FFB8B8"/>
<path d="M595.995 240.474C595.296 240.138 594.538 239.943 593.763 239.9C592.989 239.858 592.213 239.968 591.481 240.225C590.75 240.482 590.076 240.88 589.498 241.398C588.92 241.915 588.45 242.541 588.115 243.24L586.741 246.098L584.622 250.51L584.104 251.592L589.6 254.232L596.168 240.558L595.995 240.474Z" fill="#2F2E41"/>
<path d="M585.228 242.653L584.338 244.556L582.115 249.306L582.062 249.425C577.314 249.666 572.251 248.086 567.626 245.88C565.775 244.998 563.971 244.021 562.221 242.953C559.63 241.383 557.327 239.761 555.496 238.383C552.74 236.3 551.055 234.765 551.055 234.765C551.055 234.765 550.549 235.157 549.635 235.824C548.411 236.718 546.457 238.111 543.993 239.737C543.052 240.363 542.044 241.015 540.968 241.694C533.038 246.678 521.761 252.747 512.169 254.029C495.322 256.281 499.287 233.81 499.287 233.81L512.695 226.851L518.387 228.005L524.724 229.287L526.97 229.743C526.97 229.743 527.396 229.582 528.129 229.302C530.489 228.4 536.036 226.271 540.826 224.368C543.294 223.386 545.559 222.461 547.083 221.798C552.479 219.438 558.521 225.155 558.521 225.155L585.228 242.653Z" fill="#2F2E41"/>
<path d="M474.753 254.565C475.266 254.447 475.747 254.219 476.162 253.895C476.577 253.572 476.916 253.162 477.155 252.693C477.394 252.224 477.527 251.709 477.545 251.184C477.564 250.658 477.466 250.135 477.261 249.651L483.018 243.78L480.302 239.413L472.288 247.817C471.497 248.217 470.881 248.893 470.556 249.716C470.23 250.54 470.218 251.454 470.522 252.286C470.826 253.118 471.425 253.809 472.204 254.229C472.984 254.649 473.891 254.769 474.753 254.565L474.753 254.565Z" fill="#FFB8B8"/>
<path d="M502.702 195.738C507.659 195.738 511.678 191.721 511.678 186.766C511.678 181.81 507.659 177.793 502.702 177.793C497.744 177.793 493.725 181.81 493.725 186.766C493.725 191.721 497.744 195.738 502.702 195.738Z" fill="#FFB8B8"/>
<path d="M491.024 211.672L498.843 233.83L498.796 233.907C497.708 235.705 497.353 237.154 497.768 238.099C497.878 238.34 498.038 238.554 498.238 238.726C498.438 238.898 498.673 239.026 498.927 239.098L517.431 226.171L516.783 220.989L516.819 220.931C518.608 218.071 519.187 215.48 518.541 213.232C517.703 210.315 515.038 208.991 515.011 208.977L514.947 208.927L505.718 197.699L493.38 199.89L491.024 211.672Z" fill="#CCCCCC"/>
<path d="M479.132 250.565L473.894 244.12L486.522 223.284L492.409 205.094L492.592 205.153L492.409 205.094C492.731 204.101 493.262 203.187 493.967 202.416C494.671 201.645 495.533 201.034 496.494 200.623C497.455 200.213 498.493 200.014 499.537 200.038C500.582 200.063 501.609 200.311 502.55 200.766C503.491 201.221 504.323 201.872 504.99 202.676C505.658 203.479 506.145 204.417 506.419 205.424C506.694 206.432 506.749 207.487 506.581 208.518C506.413 209.549 506.026 210.532 505.446 211.4L494.637 227.586L479.132 250.565Z" fill="#CCCCCC"/>
<path d="M515.45 184.951H501.837L501.698 182.997L501 184.951H498.903L498.627 181.079L497.243 184.951H493.188V184.759C493.191 182.064 494.263 179.479 496.17 177.573C498.077 175.667 500.662 174.595 503.359 174.592H505.279C507.975 174.595 510.561 175.667 512.468 177.573C514.375 179.479 515.447 182.064 515.45 184.759V184.951Z" fill="#2F2E41"/>
<path d="M501.726 197.1C501.623 197.1 501.521 197.091 501.42 197.073L491.452 195.315V178.849H502.425L502.153 179.165C498.374 183.571 501.221 190.716 503.255 194.582C503.405 194.865 503.472 195.185 503.448 195.505C503.424 195.824 503.31 196.13 503.12 196.388C502.96 196.608 502.751 196.788 502.508 196.912C502.266 197.035 501.998 197.1 501.726 197.1V197.1Z" fill="#2F2E41"/>
</g>
</g>
<defs>
<clipPath id="clip0">
<rect width="1440" height="635.498" fill="white"/>
</clipPath>
<clipPath id="clip1">
<rect width="397.042" height="342.547" fill="white" transform="translate(1030.23 292.862)"/>
</clipPath>
<clipPath id="clip2">
<rect width="294.019" height="254.662" fill="white" transform="translate(420.193)"/>
</clipPath>
</defs>
</svg>
