<svg id="drawing" style="stroke: black; stroke-width: 0.5px;" width="1066" height="549" viewBox="0 0 1066 549" fill="none" xmlns="http://www.w3.org/2000/svg">
<path d="M553.488 217.815C553.488 217.815 548.24 204.915 563.984 195.24L553.488 217.815Z" fill="#E6E6E6"/>
<path d="M547.034 217.58C547.034 217.58 545.433 208.386 533.042 208.464L547.034 217.58Z" fill="#E6E6E6"/>
<path d="M665.404 217.815C665.404 217.815 658.47 200.772 679.27 187.99L665.404 217.815Z" fill="#E6E6E6"/>
<path d="M656.877 217.505C656.877 217.505 654.762 205.357 638.392 205.462Z" fill="#E6E6E6"/>
<path d="M631.275 210.032L627.251 211.525L619.568 196.735L625.508 194.532L631.275 210.032Z" fill="#FFB7B7"/>
<path d="M633.75 213.547L620.775 218.361L620.714 218.197C620.216 216.86 620.271 215.379 620.866 214.082C621.461 212.785 622.548 211.777 623.887 211.28L623.888 211.28L631.813 208.339L633.75 213.547Z" fill="#2F2E41"/>
<path d="M591.671 214.206L587.378 214.205L585.336 197.669L591.672 197.67L591.671 214.206Z" fill="#FFB7B7"/>
<path d="M592.416 218.361L578.573 218.361V218.186C578.573 216.759 579.141 215.39 580.151 214.381C581.162 213.372 582.532 212.805 583.961 212.805H583.962L592.416 212.806L592.416 218.361Z" fill="#2F2E41"/>
<path d="M611.326 99.5211L609.926 96.7236L598.02 102.668L598.37 105.116L596.094 108.089C596.094 108.089 592.242 110.187 592.942 117.18L593.643 123.825L594.518 132.392L588.39 153.548L585.238 181.523L582.962 204.078L593.993 203.554L604.148 166.836L622.007 206.351L634.263 203.204L617.454 164.039L615.353 147.603C615.353 147.603 616.754 138.861 610.101 132.916L611.151 129.769V125.891L614.653 107.389L611.326 99.5211Z" fill="#2F2E41"/>
<path opacity="0.2" d="M611.654 139.505L603.95 166.78L604.346 166.892L612.05 139.616L611.654 139.505Z" fill="black"/>
<path d="M610.976 132.392H593.818V134.14H610.976V132.392Z" fill="#3F3D56"/>
<path d="M593.818 135.189C594.204 135.189 594.518 134.406 594.518 133.441C594.518 132.475 594.204 131.692 593.818 131.692C593.431 131.692 593.117 132.475 593.117 133.441C593.117 134.406 593.431 135.189 593.818 135.189Z" fill="#3F3D56"/>
<path d="M606.032 94.9985C610.556 92.5293 612.218 86.8658 609.745 82.3487C607.273 77.8317 601.601 76.1716 597.078 78.6409C592.555 81.1101 590.892 86.7736 593.365 91.2906C595.838 95.8077 601.509 97.4678 606.032 94.9985Z" fill="#FFB7B7"/>
<path d="M615.839 83.4922C620.399 83.4922 624.096 79.8003 624.096 75.2461C624.096 70.6919 620.399 67 615.839 67C611.278 67 607.581 70.6919 607.581 75.2461C607.581 79.8003 611.278 83.4922 615.839 83.4922Z" fill="#2F2E41"/>
<path d="M626.318 74.3628C626.643 75.4554 626.739 76.6035 626.598 77.7347C626.456 78.866 626.082 79.9557 625.498 80.9351C624.914 81.9146 624.133 82.7624 623.204 83.4252C622.275 84.088 621.219 84.5512 620.102 84.7858C618.985 85.0203 617.831 85.021 616.714 84.7878C615.596 84.5546 614.539 84.0925 613.61 83.4309C612.68 82.7692 611.898 81.9223 611.313 80.9435C610.728 79.9648 610.352 78.8755 610.209 77.7445C610.801 79.7282 612.118 81.4173 613.899 82.4762C615.68 83.5352 617.794 83.8867 619.823 83.4608C621.851 83.035 623.645 81.863 624.848 80.1776C626.051 78.4922 626.576 76.4165 626.318 74.3628V74.3628Z" fill="#2F2E41"/>
<path d="M593.695 84.2318C593.453 86.3633 593.922 88.5151 595.028 90.3538C596.135 92.1925 597.818 93.6154 599.816 94.402C601.815 95.1887 604.017 95.2951 606.083 94.7048C608.148 94.1146 609.96 92.8606 611.24 91.1372C612.519 89.4138 613.193 87.3172 613.158 85.1723C613.123 83.0274 612.38 80.954 611.046 79.2732C609.711 77.5925 607.858 76.3983 605.774 75.8757C603.691 75.3532 601.493 75.5314 599.521 76.3828C597.891 75.0695 595.869 75.4765 594.225 76.8625C592.367 78.4297 591.815 79.5063 590.373 82.0835C591.791 82.2823 592.278 84.033 593.695 84.2318Z" fill="#2F2E41"/>
<path d="M628.006 112.263C627.901 115.026 627.694 120.463 627.694 120.741C627.694 121.033 623.567 129.568 621.783 133.241V133.243C621.656 133.502 621.543 133.737 621.442 133.943C621.304 134.229 621.087 134.468 620.817 134.634C620.547 134.8 620.235 134.884 619.918 134.879L612.125 134.739C611.696 134.732 611.288 134.559 610.983 134.258C610.679 133.957 610.503 133.55 610.493 133.122L609.623 98.8835C609.621 98.7706 609.64 98.6583 609.682 98.5531C609.723 98.448 609.785 98.3522 609.864 98.2713C609.943 98.1904 610.037 98.1261 610.141 98.0822C610.245 98.0382 610.357 98.0156 610.47 98.0155H620.52C620.945 98.0157 621.361 98.1353 621.72 98.3607C622.08 98.586 622.369 98.9079 622.554 99.2896L627.377 109.255C627.829 110.192 628.045 111.224 628.006 112.263V112.263Z" fill="#6C63FF"/>
<path d="M610.357 130.772C608.357 129.562 606.56 128.046 605.032 126.278C601.481 122.29 599.322 117.259 598.878 111.941C598.481 107.391 599.386 104.009 601.565 101.888C604.335 99.1926 608.106 99.5843 608.265 99.6024L608.434 99.6215L610.988 101.78L610.265 102.633L607.98 100.702C607.28 100.667 604.423 100.659 602.337 102.697C600.416 104.573 599.627 107.651 599.993 111.844C600.415 116.908 602.466 121.699 605.839 125.503C607.295 127.184 609.001 128.631 610.897 129.794L610.357 130.772Z" fill="#6C63FF"/>
<path d="M624.859 117.765L611.242 120.557L611.317 120.922L624.934 118.13L624.859 117.765Z" fill="#3F3D56"/>
<path d="M615.884 98.0079L615.511 98.0231L616.396 119.66L616.769 119.645L615.884 98.0079Z" fill="#3F3D56"/>
<path d="M628.006 112.263C627.901 115.026 627.694 120.463 627.694 120.74C627.694 121.033 623.566 129.568 621.783 133.241L625.107 113.968C625.236 113.226 625.559 112.532 626.045 111.956C626.53 111.381 627.16 110.944 627.87 110.691C627.981 111.207 628.027 111.736 628.006 112.263Z" fill="#3F3D56"/>
<path d="M607.584 152.655C607.878 152.277 608.086 151.838 608.192 151.371C608.298 150.903 608.3 150.418 608.199 149.949C608.097 149.481 607.893 149.041 607.603 148.659C607.312 148.278 606.941 147.964 606.516 147.742L607.191 140.279L602.75 138.763L601.944 149.315C601.617 150.053 601.572 150.885 601.818 151.654C602.064 152.423 602.583 153.075 603.278 153.487C603.974 153.898 604.796 154.041 605.589 153.888C606.383 153.735 607.092 153.296 607.584 152.655V152.655Z" fill="#FFB7B7"/>
<path d="M608.164 145.434L600.294 145.149L600.627 107.25C600.622 106.178 600.954 105.131 601.577 104.257C602.199 103.383 603.081 102.727 604.098 102.381C605.048 102.066 606.074 102.065 607.025 102.378C608.103 102.743 609.029 103.455 609.656 104.404C610.284 105.352 610.577 106.482 610.491 107.615L608.164 145.434Z" fill="#CBCBCB"/>
<path d="M677.201 218.49H520.412C520.302 218.49 520.198 218.447 520.121 218.37C520.043 218.293 520 218.188 520 218.079C520 217.97 520.043 217.866 520.121 217.789C520.198 217.712 520.302 217.668 520.412 217.668H677.201C677.311 217.668 677.415 217.712 677.492 217.789C677.57 217.866 677.613 217.97 677.613 218.079C677.613 218.188 677.57 218.293 677.492 218.37C677.415 218.447 677.311 218.49 677.201 218.49Z" fill="#CBCBCB"/>
<path d="M121.664 443.635C121.67 442.907 121.524 442.185 121.238 441.515C120.951 440.845 120.53 440.241 120 439.741C119.469 439.241 118.842 438.856 118.156 438.609C117.47 438.363 116.741 438.261 116.014 438.309C115.287 438.357 114.577 438.554 113.93 438.889C113.282 439.223 112.711 439.687 112.251 440.253C111.791 440.818 111.452 441.472 111.257 442.174C111.061 442.876 111.012 443.611 111.113 444.332L95.8811 464.279C95.2311 465.579 94.9791 467.041 95.1566 468.484C95.3342 469.926 95.9334 471.284 96.8792 472.388L98.074 473.782L103.556 472.685L109.77 467.203L109.039 460.989L116.714 448.928L116.704 448.92C118.047 448.834 119.308 448.24 120.229 447.259C121.151 446.277 121.664 444.982 121.664 443.635V443.635Z" fill="#FFB9B9"/>
<path d="M16.3334 541.151L13.847 531.916L48.2809 517.933L51.9504 531.561L16.3334 541.151Z" fill="#FFB8B8"/>
<path d="M8.01642 545.916L0 516.141L0.376592 516.04C3.45014 515.213 6.72648 515.64 9.48497 517.228C12.2435 518.816 14.2582 521.435 15.086 524.508L15.0862 524.509L19.9823 542.694L8.01642 545.916Z" fill="#2F2E41"/>
<path d="M63.7644 539.675L56.0308 534.051L74.0442 501.543L85.4587 509.844L63.7644 539.675Z" fill="#FFB8B8"/>
<path d="M60.2852 548.607L35.3477 530.471L35.577 530.156C37.4492 527.582 40.2672 525.857 43.4111 525.36C46.5551 524.863 49.7676 525.636 52.342 527.508L52.3426 527.508L67.5736 538.585L60.2852 548.607Z" fill="#2F2E41"/>
<path d="M129.506 494.249L110.044 475.343C108.346 473.693 106.109 472.711 103.744 472.579C101.38 472.447 99.0474 473.173 97.1756 474.624L60.4287 515.447L63.7182 520.564L98.8049 496.807L122.562 527.874L145.222 516.544L129.506 494.249Z" fill="#2F2E41"/>
<path d="M121.1 498.269L106.846 497.173L96.5229 494.67C95.9398 493.761 95.0928 493.051 94.0952 492.636C93.0976 492.221 91.997 492.121 90.9408 492.348C89.8846 492.576 88.9232 493.121 88.1853 493.91C87.4474 494.7 86.9683 495.696 86.812 496.765C86.6557 497.834 86.8298 498.925 87.3108 499.893C87.7919 500.86 88.5571 501.657 89.5039 502.178C90.4507 502.699 91.5339 502.918 92.6086 502.806C93.6832 502.694 94.698 502.256 95.517 501.551L95.5155 501.559L101.729 504.117L128.409 513.254L131.699 510.696L121.1 498.269Z" fill="#FFB9B9"/>
<path d="M155.456 537.742L147.415 542.859H137.912L93.6881 526.412L28.9966 538.108L27.1692 524.219L86.3785 498.269L138.278 515.447L155.456 537.742Z" fill="#2F2E41"/>
<path d="M138.278 448.928C146.15 448.928 152.532 442.547 152.532 434.674C152.532 426.802 146.15 420.42 138.278 420.42C130.406 420.42 124.024 426.802 124.024 434.674C124.024 442.547 130.406 448.928 138.278 448.928Z" fill="#FFB9B9"/>
<path d="M175.159 491.584C175.159 500.187 173.804 508.736 171.143 516.916L170.075 520.199L164.959 543.59L159.476 545.052L155.456 539.935L147.415 534.087L141.567 524.584L136.553 516.229L134.988 513.62L129.506 486.208L108.673 474.512L101.729 473.416L103.191 469.396L109.404 460.989L115.618 460.258L117.445 458.796L118.907 459.527L126.966 462.632L153.095 451.593L156.918 452.218L170.075 463.182C173.439 472.274 175.16 481.891 175.159 491.584V491.584Z" fill="#CCCCCC"/>
<path opacity="0.1" d="M171.172 488.401L157.283 497.538L136.553 516.229L134.989 513.62L130.603 491.69H131.699L143.029 470.858L171.172 488.401Z" fill="black"/>
<path d="M143.029 468.665L131.699 489.497L125.12 496.807L119.273 498.269L134.989 515.447L157.283 495.345L171.172 486.208L143.029 468.665Z" fill="#CCCCCC"/>
<path d="M127.191 424.076L125.647 424.67C125.412 424.511 125.211 424.308 125.055 424.071C124.9 423.835 124.792 423.57 124.738 423.292C124.685 423.014 124.686 422.728 124.743 422.451C124.8 422.174 124.911 421.91 125.07 421.676C125.078 421.664 125.087 421.651 125.095 421.639L122.241 421.506C124.074 419.066 126.403 417.042 129.075 415.57C131.748 414.098 134.702 413.209 137.744 412.964C140.785 412.719 143.844 413.123 146.718 414.148C149.592 415.173 152.215 416.797 154.414 418.913C154.544 418.465 155.961 419.336 156.539 420.219C156.733 419.49 158.061 423.011 158.531 425.499C158.749 424.67 159.585 426.008 158.852 427.291C159.316 427.224 159.526 428.411 159.167 429.073C159.675 428.834 159.589 430.252 159.038 431.199C159.763 431.135 158.977 446.059 148.102 444.972C147.345 441.493 147.559 441.71 146.667 437.237C146.252 436.796 145.798 436.395 145.344 435.995L142.891 433.829C140.038 431.311 137.443 428.203 133.642 427.261C131.03 426.615 129.379 426.469 130.802 423.525C129.516 424.062 128.315 424.86 127.017 425.359C127.035 424.947 127.216 424.487 127.191 424.076Z" fill="#2F2E41"/>
<path d="M145.405 438.877C146.818 438.877 147.963 437.732 147.963 436.319C147.963 434.906 146.818 433.76 145.405 433.76C143.992 433.76 142.846 434.906 142.846 436.319C142.846 437.732 143.992 438.877 145.405 438.877Z" fill="#FFB9B9"/>
<path d="M679.848 218H188.152C186.375 218 184.615 218.35 182.973 219.031C181.331 219.711 179.839 220.709 178.582 221.966C177.326 223.223 176.329 224.716 175.649 226.359C174.968 228.002 174.618 229.763 174.618 231.541V505.656C174.618 507.434 174.968 509.195 175.649 510.838C176.329 512.48 177.326 513.973 178.582 515.231C179.839 516.488 181.331 517.485 182.973 518.166C184.615 518.846 186.375 519.197 188.152 519.197H679.848C683.437 519.197 686.879 517.77 689.417 515.231C691.955 512.691 693.381 509.247 693.381 505.656V231.541C693.381 227.95 691.955 224.505 689.417 221.966C686.879 219.427 683.437 218 679.848 218V218Z" fill="#3F3D56"/>
<path d="M675.237 241.931H192.763V514.245H675.237V241.931Z" fill="white"/>
<path d="M433.587 234.504C436.32 234.504 438.536 232.287 438.536 229.553C438.536 226.818 436.32 224.602 433.587 224.602C430.854 224.602 428.639 226.818 428.639 229.553C428.639 232.287 430.854 234.504 433.587 234.504Z" fill="white"/>
<path d="M537.257 514.246H192.763V241.931L537.257 514.246Z" fill="#F2F2F2"/>
<path d="M257 494C276.33 494 292 478.33 292 459C292 439.67 276.33 424 257 424C237.67 424 222 439.67 222 459C222 478.33 237.67 494 257 494Z" fill="#6C63FF"/>
<path d="M641.102 258.228H622.267V277.072H641.102V258.228Z" fill="#6C63FF"/>
<path d="M649.846 285.822H626.976V262.939H649.846V285.822ZM627.97 284.827H648.852V263.934H627.97L627.97 284.827Z" fill="#CCCCCC"/>
<path d="M706.928 509.294H659.842V505.9C659.842 505.811 659.824 505.724 659.791 505.642C659.757 505.561 659.707 505.486 659.645 505.424C659.582 505.361 659.508 505.312 659.427 505.278C659.345 505.244 659.257 505.227 659.169 505.227H643.025C642.937 505.227 642.849 505.244 642.768 505.278C642.686 505.312 642.612 505.361 642.55 505.424C642.487 505.486 642.438 505.561 642.404 505.642C642.37 505.724 642.353 505.811 642.352 505.9V509.294H632.263V505.9C632.263 505.811 632.245 505.724 632.211 505.642C632.178 505.561 632.128 505.486 632.066 505.424C632.003 505.361 631.929 505.312 631.847 505.278C631.766 505.244 631.678 505.227 631.59 505.227H615.446C615.358 505.227 615.27 505.244 615.189 505.278C615.107 505.312 615.033 505.361 614.971 505.424C614.908 505.486 614.858 505.561 614.825 505.642C614.791 505.724 614.774 505.811 614.774 505.9V505.9V509.294H604.684V505.9C604.684 505.811 604.666 505.724 604.632 505.642C604.599 505.561 604.549 505.486 604.487 505.424C604.424 505.361 604.35 505.312 604.268 505.278C604.187 505.244 604.099 505.227 604.011 505.227H587.867C587.779 505.227 587.691 505.244 587.61 505.278C587.528 505.312 587.454 505.361 587.391 505.424C587.329 505.486 587.279 505.561 587.246 505.642C587.212 505.724 587.194 505.811 587.194 505.9V505.9V509.294H577.104V505.9C577.104 505.811 577.087 505.724 577.053 505.642C577.019 505.561 576.97 505.486 576.907 505.424C576.845 505.361 576.771 505.312 576.689 505.278C576.608 505.244 576.52 505.227 576.432 505.227H560.288C560.2 505.227 560.112 505.244 560.03 505.278C559.949 505.312 559.875 505.361 559.812 505.424C559.75 505.486 559.7 505.561 559.666 505.642C559.633 505.724 559.615 505.811 559.615 505.9V509.294H549.525V505.9C549.525 505.811 549.508 505.724 549.474 505.642C549.44 505.561 549.391 505.486 549.328 505.424C549.266 505.361 549.192 505.312 549.11 505.278C549.028 505.244 548.941 505.227 548.853 505.227H532.709C532.62 505.227 532.533 505.244 532.451 505.278C532.37 505.312 532.296 505.361 532.233 505.424C532.171 505.486 532.121 505.561 532.087 505.642C532.053 505.724 532.036 505.811 532.036 505.9V505.9V509.294H521.946V505.9C521.946 505.811 521.929 505.724 521.895 505.642C521.861 505.561 521.812 505.486 521.749 505.424C521.687 505.361 521.613 505.312 521.531 505.278C521.449 505.244 521.362 505.227 521.273 505.227H505.13C505.041 505.227 504.954 505.244 504.872 505.278C504.791 505.312 504.716 505.361 504.654 505.424C504.591 505.486 504.542 505.561 504.508 505.642C504.474 505.724 504.457 505.811 504.457 505.9V505.9V509.294H494.367V505.9C494.367 505.811 494.35 505.724 494.316 505.642C494.282 505.561 494.232 505.486 494.17 505.424C494.108 505.361 494.033 505.312 493.952 505.278C493.87 505.244 493.783 505.227 493.694 505.227H367.234C367.146 505.227 367.058 505.244 366.976 505.278C366.895 505.312 366.821 505.361 366.758 505.424C366.696 505.486 366.646 505.561 366.612 505.642C366.579 505.724 366.561 505.811 366.561 505.9V505.9V509.294H356.471V505.9C356.471 505.811 356.454 505.724 356.42 505.642C356.386 505.561 356.337 505.486 356.274 505.424C356.212 505.361 356.138 505.312 356.056 505.278C355.974 505.244 355.887 505.227 355.799 505.227H339.655C339.566 505.227 339.479 505.244 339.397 505.278C339.316 505.312 339.242 505.361 339.179 505.424C339.117 505.486 339.067 505.561 339.033 505.642C338.999 505.724 338.982 505.811 338.982 505.9V505.9V509.294H328.892V505.9C328.892 505.811 328.875 505.724 328.841 505.642C328.807 505.561 328.758 505.486 328.695 505.424C328.633 505.361 328.559 505.312 328.477 505.278C328.395 505.244 328.308 505.227 328.22 505.227H312.076C311.987 505.227 311.9 505.244 311.818 505.278C311.737 505.312 311.662 505.361 311.6 505.424C311.537 505.486 311.488 505.561 311.454 505.642C311.42 505.724 311.403 505.811 311.403 505.9V505.9V509.294H301.313V505.9C301.313 505.811 301.296 505.724 301.262 505.642C301.228 505.561 301.178 505.486 301.116 505.424C301.053 505.361 300.979 505.312 300.898 505.278C300.816 505.244 300.729 505.227 300.64 505.227H284.496C284.408 505.227 284.321 505.244 284.239 505.278C284.157 505.312 284.083 505.361 284.021 505.424C283.958 505.486 283.909 505.561 283.875 505.642C283.841 505.724 283.824 505.811 283.824 505.9V505.9V509.294H273.734V505.9C273.734 505.811 273.716 505.724 273.683 505.642C273.649 505.561 273.599 505.486 273.537 505.424C273.474 505.361 273.4 505.312 273.319 505.278C273.237 505.244 273.15 505.227 273.061 505.227H256.917C256.829 505.227 256.742 505.244 256.66 505.278C256.578 505.312 256.504 505.361 256.442 505.424C256.379 505.486 256.33 505.561 256.296 505.642C256.262 505.724 256.245 505.811 256.245 505.9V505.9V509.294H246.155V505.9C246.155 505.811 246.137 505.724 246.104 505.642C246.07 505.561 246.02 505.486 245.958 505.424C245.895 505.361 245.821 505.312 245.739 505.278C245.658 505.244 245.57 505.227 245.482 505.227H229.338C229.16 505.227 228.989 505.298 228.863 505.424C228.736 505.55 228.665 505.721 228.665 505.9V509.294H218.576V505.9C218.576 505.811 218.558 505.724 218.524 505.642C218.491 505.561 218.441 505.486 218.379 505.424C218.316 505.361 218.242 505.312 218.16 505.278C218.079 505.244 217.991 505.227 217.903 505.227H201.759C201.581 505.227 201.41 505.298 201.283 505.424C201.157 505.55 201.086 505.721 201.086 505.9V509.294H170.144C165.862 509.294 161.756 510.996 158.728 514.025C155.701 517.055 154 521.163 154 525.447V532.751C154 537.035 155.701 541.143 158.728 544.173C161.756 547.202 165.862 548.904 170.144 548.904H706.928C711.21 548.904 715.316 547.202 718.344 544.173C721.371 541.143 723.072 537.035 723.072 532.751V525.447C723.072 523.326 722.654 521.225 721.843 519.266C721.032 517.306 719.843 515.525 718.344 514.025C716.844 512.525 715.065 511.336 713.106 510.524C711.148 509.712 709.048 509.294 706.928 509.294V509.294Z" fill="#3F3D56"/>
<path d="M260.909 283.202L269.663 274.475L260.909 265.749L263.578 263.089L275 274.475L263.578 285.862L260.909 283.202Z" fill="#6C63FF"/>
<path d="M235.912 275.098H239.471V271.54H235.912L235.912 275.098ZM253.775 271.54H250.217V275.098H253.775V271.54ZM243.065 275.098H246.623V271.54H243.065V275.098Z" fill="#6C63FF"/>
<path d="M231.091 283.113L222.329 274.386L231.082 265.66L228.413 263L217 274.386L228.422 285.773L231.091 283.113Z" fill="#6C63FF"/>
<g clip-path="url(#clip0)">
<path d="M771.119 463.932C796.697 463.932 817.432 443.197 817.432 417.619C817.432 392.042 796.697 371.307 771.119 371.307C745.541 371.307 724.807 392.042 724.807 417.619C724.807 443.197 745.541 463.932 771.119 463.932Z" fill="#F0F0F0"/>
<path d="M771.246 417.619H771.373L773.664 548.923H768.829L771.246 417.619Z" fill="#F0F0F0"/>
<path d="M870.551 486.933C889.207 486.933 904.33 471.809 904.33 453.154C904.33 434.498 889.207 419.375 870.551 419.375C851.896 419.375 836.772 434.498 836.772 453.154C836.772 471.809 851.896 486.933 870.551 486.933Z" fill="#F0F0F0"/>
<path d="M870.644 453.154H870.737L872.408 548.923H868.881L870.644 453.154Z" fill="#F0F0F0"/>
<path d="M828.009 406.724C870.459 406.724 904.871 372.312 904.871 329.862C904.871 287.412 870.459 253 828.009 253C785.56 253 751.147 287.412 751.147 329.862C751.147 372.312 785.56 406.724 828.009 406.724Z" fill="#6C63FF"/>
<path opacity="0.1" d="M884.762 278.524C891.931 295.295 892.904 314.069 887.506 331.49C882.107 348.912 870.69 363.847 855.295 373.626C839.899 383.405 821.527 387.391 803.463 384.871C785.399 382.352 768.819 373.491 756.687 359.873C761.067 370.119 767.622 379.29 775.898 386.752C784.174 394.213 793.973 399.786 804.617 403.084C815.26 406.382 826.494 407.327 837.539 405.853C848.584 404.379 859.177 400.521 868.583 394.546C877.989 388.572 885.983 380.624 892.013 371.253C898.042 361.882 901.962 351.313 903.501 340.276C905.04 329.24 904.161 318.001 900.925 307.339C897.69 296.676 892.174 286.844 884.762 278.524V278.524Z" fill="black"/>
<path d="M827.798 329.862H827.587L823.786 547.778H831.81L827.798 329.862Z" fill="#3F3D56"/>
<path d="M1065.58 548.853H723.418C723.307 548.853 723.201 548.809 723.122 548.731C723.044 548.653 723 548.546 723 548.436C723 548.325 723.044 548.219 723.122 548.14C723.201 548.062 723.307 548.018 723.418 548.018H1065.58C1065.69 548.018 1065.8 548.062 1065.88 548.14C1065.96 548.219 1066 548.325 1066 548.436C1066 548.546 1065.96 548.653 1065.88 548.731C1065.8 548.809 1065.69 548.853 1065.58 548.853Z" fill="#CACACA"/>
<path d="M1005.76 544.623H1001.67L999.72 528.835H1005.76L1005.76 544.623Z" fill="#FFB6B6"/>
<path d="M1006.8 548.591L993.606 548.59V548.423C993.606 547.061 994.148 545.754 995.111 544.791C996.074 543.828 997.381 543.286 998.743 543.286H998.744L1006.8 543.287L1006.8 548.591Z" fill="#2F2E41"/>
<path d="M1024.74 544.623H1020.65L1018.7 528.835H1024.74L1024.74 544.623Z" fill="#FFB6B6"/>
<path d="M1025.78 548.591L1012.59 548.59V548.423C1012.59 547.061 1013.13 545.754 1014.09 544.791C1015.05 543.828 1016.36 543.286 1017.72 543.286H1017.72L1025.79 543.287L1025.78 548.591Z" fill="#2F2E41"/>
<path d="M956.033 544.623H960.126L960.886 528.75L956.032 528.835L956.033 544.623Z" fill="#FFB6B6"/>
<path d="M954.989 543.287L963.05 543.286H963.05C964.412 543.286 965.719 543.828 966.682 544.791C967.646 545.754 968.187 547.061 968.187 548.423V548.59L954.989 548.591L954.989 543.287Z" fill="#2F2E41"/>
<path d="M939.486 544.623H943.579L944.39 528.75L939.485 528.835L939.486 544.623Z" fill="#FFB6B6"/>
<path d="M938.442 543.287L946.503 543.286H946.503C947.865 543.286 949.172 543.828 950.135 544.791C951.099 545.754 951.64 547.061 951.64 548.423V548.59L938.442 548.591L938.442 543.287Z" fill="#2F2E41"/>
<path d="M974.921 477.731C974.768 477.335 974.703 476.91 974.732 476.486C974.76 476.062 974.882 475.65 975.087 475.278C975.292 474.906 975.576 474.584 975.919 474.334C976.263 474.084 976.657 473.912 977.073 473.83L991.049 451.364L995.771 455.56L980.549 476.324C980.639 477.034 980.467 477.752 980.063 478.342C979.66 478.932 979.053 479.354 978.36 479.527C977.666 479.701 976.933 479.613 976.299 479.282C975.665 478.951 975.175 478.399 974.921 477.731V477.731Z" fill="#FFB6B6"/>
<path d="M1038.79 486.046C1038.4 485.874 1038.06 485.62 1037.78 485.3C1037.5 484.98 1037.29 484.603 1037.18 484.195C1037.06 483.787 1037.03 483.358 1037.1 482.938C1037.16 482.519 1037.32 482.119 1037.56 481.766L1031.55 455.998L1037.86 455.626L1041.78 481.072C1042.34 481.51 1042.73 482.14 1042.86 482.842C1042.99 483.545 1042.86 484.272 1042.49 484.885C1042.13 485.498 1041.55 485.955 1040.86 486.169C1040.18 486.383 1039.45 486.339 1038.79 486.046V486.046Z" fill="#FFB6B6"/>
<path d="M979.358 476.622C979.342 476.148 979.222 475.683 979.007 475.26C978.791 474.838 978.486 474.467 978.112 474.175C977.738 473.883 977.305 473.677 976.842 473.571C976.38 473.464 975.9 473.461 975.436 473.56L969.46 463.698L966.891 469.112L972.96 477.647C973.179 478.415 973.671 479.077 974.345 479.506C975.018 479.935 975.826 480.103 976.615 479.976C977.403 479.85 978.118 479.439 978.624 478.821C979.13 478.202 979.391 477.42 979.358 476.622V476.622Z" fill="#FFB6B6"/>
<path d="M929.418 486.938C929.697 486.554 929.888 486.114 929.979 485.648C930.069 485.183 930.056 484.703 929.941 484.242C929.826 483.782 929.611 483.353 929.312 482.985C929.013 482.616 928.637 482.318 928.21 482.111L929.566 470.659L924.21 473.347L923.744 483.81C923.443 484.55 923.424 485.374 923.691 486.127C923.958 486.88 924.492 487.509 925.191 487.894C925.891 488.28 926.708 488.396 927.487 488.219C928.266 488.043 928.953 487.587 929.418 486.938V486.938Z" fill="#FFB6B6"/>
<path d="M1002.52 475.338L1000.78 478.864L999.413 538.777L1008.34 539.431L1016.73 495.491L1018.75 538.777L1026.09 538.847L1034.04 479.813L1002.52 475.338Z" fill="#2F2E41"/>
<path d="M958.433 475.337L961.332 477.054C961.332 477.054 963.687 478.554 962.895 488.982C962.103 499.41 961.156 541.189 961.156 541.189H956.018L947.697 491.281L944.661 541.73L939.253 541.459C939.253 541.459 928.203 484.024 932.984 477.79L958.433 475.337Z" fill="#2F2E41"/>
<path d="M1001.88 432.19L1011.64 428.934L1023.62 429.11L1031.77 432.363L1034.04 479.813C1034.04 479.813 1016.2 490.497 1000.78 478.863L1001.88 432.19Z" fill="#E4E4E4"/>
<path d="M1001.88 431.772C1001.88 431.772 998.032 431.321 995.887 437.709C993.741 444.097 988.068 452.74 988.068 452.74L994.274 458.559L1006.69 441.345L1001.88 431.772Z" fill="#E4E4E4"/>
<path d="M1028.74 433.259L1031.77 432.363C1031.77 432.363 1038.62 433.277 1038.9 440.654C1039.17 448.031 1040.47 459.576 1040.47 459.576L1033.47 460.97L1028.74 433.259Z" fill="#E4E4E4"/>
<path d="M931.235 438.434C931.235 438.434 945.331 433.902 956.703 438.127L955.772 460.064L962.788 477.176C962.788 477.176 940.485 485.827 933.053 478.557L935.221 461.416L931.235 438.434Z" fill="#6C63FF"/>
<path d="M952.914 440.703L955.868 438.127C955.868 438.127 957.838 438.104 959.534 441.135C961.229 444.166 964.301 453.951 964.301 453.951L974.136 470.61L969.81 473.585L954.211 451.77L952.914 440.703Z" fill="#6C63FF"/>
<path d="M931.758 439.515L931.959 438.141C931.959 438.141 926.467 438.547 926.002 443.839C925.538 449.131 923.839 478.993 923.839 478.993L929.271 480.075L934.676 449.426L931.758 439.515Z" fill="#6C63FF"/>
<path d="M1018.41 424.563C1023.44 424.563 1027.52 420.482 1027.52 415.448C1027.52 410.414 1023.44 406.333 1018.41 406.333C1013.37 406.333 1009.29 410.414 1009.29 415.448C1009.29 420.482 1013.37 424.563 1018.41 424.563Z" fill="#FFB6B6"/>
<path d="M950.798 430.505L934.32 433.75C933.981 433.816 933.63 433.745 933.343 433.553C933.056 433.36 932.857 433.062 932.79 432.723L931.392 425.621C931.145 424.371 931.148 423.085 931.399 421.836C931.65 420.587 932.144 419.4 932.854 418.342C934.287 416.206 936.511 414.726 939.035 414.229C941.559 413.732 944.177 414.258 946.313 415.692C948.45 417.125 949.929 419.348 950.426 421.872L951.825 428.975C951.891 429.314 951.82 429.665 951.628 429.952C951.435 430.239 951.137 430.438 950.798 430.505V430.505Z" fill="#2F2E41"/>
<path d="M943.108 431.711C947.036 431.711 950.22 428.527 950.22 424.599C950.22 420.672 947.036 417.488 943.108 417.488C939.181 417.488 935.996 420.672 935.996 424.599C935.996 428.527 939.181 431.711 943.108 431.711Z" fill="#FFB6B6"/>
<path d="M952.817 422.139L942.742 424.123L942.354 422.697L942.122 424.245L940.57 424.551L939.801 421.724L939.342 424.793L936.34 425.384L936.312 425.242C935.921 423.246 936.338 421.176 937.472 419.486C938.605 417.797 940.362 416.626 942.358 416.231L943.778 415.951C945.775 415.56 947.845 415.978 949.534 417.111C951.223 418.244 952.394 420.002 952.789 421.997L952.817 422.139Z" fill="#2F2E41"/>
<path d="M944.431 433.136C944.355 433.151 944.278 433.159 944.201 433.161L936.567 433.312L934.165 421.118L942.287 419.519L942.132 419.793C939.977 423.607 943.126 428.482 945.196 431.049C945.348 431.237 945.444 431.464 945.473 431.704C945.502 431.944 945.462 432.187 945.359 432.406C945.273 432.592 945.144 432.756 944.983 432.882C944.821 433.009 944.632 433.096 944.431 433.136V433.136Z" fill="#2F2E41"/>
<path d="M1009.54 407.23C1010.65 406.887 1011.86 407.057 1012.99 407.312L1012.88 407.588C1015.6 406.014 1018.83 405.143 1021.91 405.746C1025 406.349 1027.84 408.62 1028.58 411.67C1028.85 412.889 1028.87 414.15 1028.63 415.376C1028.31 417.176 1027.6 418.888 1026.57 420.398C1025.54 421.909 1024.2 423.184 1022.64 424.142C1022.25 424.378 1021.65 424.547 1021.42 424.153C1021.15 423.706 1021.75 423.252 1021.92 422.764C1022.12 422.231 1021.76 421.639 1021.31 421.301C1020.85 420.964 1020.3 420.789 1019.82 420.481C1019.34 420.137 1018.94 419.698 1018.65 419.191C1018.35 418.685 1018.16 418.122 1018.1 417.539C1017.97 416.373 1018 415.195 1018.2 414.039C1016.37 414.709 1014.44 415.08 1012.49 415.137C1011.8 415.2 1011.11 415.09 1010.47 414.817C1009.65 414.4 1009.16 413.553 1008.71 412.751C1008.52 412.415 1008.33 412.08 1008.15 411.744C1007.74 411.143 1007.5 410.449 1007.43 409.727C1007.43 408.561 1008.42 407.574 1009.54 407.23Z" fill="#2F2E41"/>
</g>
<path d="M329.42 211.661L330.893 207.873L316.98 200.392L314.806 205.982L329.42 211.661Z" fill="#FFB8B8"/>
<path d="M337.313 201.781C336.688 201.538 336.022 201.42 335.352 201.435C334.682 201.449 334.022 201.596 333.408 201.866C332.795 202.135 332.241 202.523 331.778 203.007C331.314 203.491 330.951 204.062 330.709 204.686L329.715 207.239L328.183 211.18L327.808 212.146L332.718 214.055L337.467 201.842L337.313 201.781Z" fill="#2F2E41"/>
<path d="M328.184 204.372L327.543 206.07L325.944 210.309L325.906 210.415C321.832 210.938 317.366 209.912 313.236 208.319C311.583 207.682 309.965 206.96 308.387 206.156C306.051 204.976 303.959 203.731 302.291 202.666C299.779 201.055 298.225 199.845 298.225 199.845C298.225 199.845 297.815 200.216 297.073 200.851C296.077 201.702 294.487 203.032 292.472 204.596C291.704 205.197 290.879 205.826 289.997 206.482C283.498 211.301 275.156 198.443 275.156 198.443C275.156 198.443 277.502 196.95 278.115 196.66C280.089 195.727 284.725 193.525 288.724 191.568C290.785 190.558 292.674 189.612 293.943 188.939C298.434 186.549 304.018 191.072 304.018 191.072L328.184 204.372Z" fill="#2F2E41"/>
<path opacity="0.14" d="M328.184 204.372L327.543 206.07L325.944 210.309L325.906 210.415C321.832 210.938 317.366 209.912 313.236 208.319C311.583 207.682 309.965 206.96 308.387 206.156C306.051 204.976 303.959 203.731 302.291 202.666C299.779 201.055 298.225 199.845 298.225 199.845C298.225 199.845 297.815 200.216 297.073 200.851C296.077 201.702 294.487 203.032 292.472 204.596C291.704 205.197 290.879 205.826 289.997 206.482C283.498 211.301 275.156 198.443 275.156 198.443C275.156 198.443 277.502 196.95 278.115 196.66C280.089 195.727 284.725 193.525 288.724 191.568C290.785 190.558 292.674 189.612 293.943 188.939C298.434 186.549 304.018 191.072 304.018 191.072L328.184 204.372Z" fill="black"/>
<path d="M245.873 114.22C277.429 114.22 303.011 88.6512 303.011 57.1101C303.011 25.5691 277.429 0 245.873 0C214.317 0 188.736 25.5691 188.736 57.1101C188.736 88.6512 214.317 114.22 245.873 114.22Z" fill="#6C63FF"/>
<path opacity="0.2" d="M203.685 18.9651C198.355 31.4261 197.632 45.3754 201.645 58.3201C205.658 71.2649 214.145 82.3618 225.59 89.6277C237.035 96.8936 250.692 99.8552 264.12 97.9832C277.549 96.1112 289.874 89.5276 298.893 79.4088C295.637 87.022 290.764 93.8366 284.612 99.3806C278.46 104.925 271.175 109.065 263.263 111.516C255.35 113.967 247 114.669 238.789 113.573C230.579 112.478 222.704 109.611 215.712 105.172C208.72 100.733 202.777 94.8276 198.295 87.8648C193.813 80.9021 190.899 73.0486 189.755 64.8485C188.611 56.6483 189.264 48.2976 191.669 40.3749C194.075 32.4521 198.175 25.1468 203.685 18.9651Z" fill="black"/>
<path d="M246.03 57.1099H246.187L249.013 219.027H243.048L246.03 57.1099Z" fill="#3F3D56"/>
<path d="M237.235 130.543L235.919 133.042L245.364 138.012L246.68 135.513L237.235 130.543Z" fill="#3F3D56"/>
<path d="M438.668 219.671H185.332C185.244 219.671 185.159 219.636 185.097 219.574C185.035 219.512 185 219.428 185 219.34C185 219.252 185.035 219.168 185.097 219.105C185.159 219.043 185.244 219.008 185.332 219.008H438.668C438.756 219.008 438.841 219.043 438.903 219.105C438.965 219.168 439 219.252 439 219.34C439 219.428 438.965 219.512 438.903 219.574C438.841 219.636 438.756 219.671 438.668 219.671Z" fill="#3F3D56"/>
<path d="M263.172 168.726H243.939C243.544 168.725 243.164 168.568 242.885 168.289C242.605 168.009 242.447 167.63 242.447 167.234V158.949C242.447 156.004 243.617 153.18 245.701 151.097C247.784 149.015 250.609 147.845 253.555 147.845C256.501 147.845 259.327 149.015 261.41 151.097C263.493 153.18 264.664 156.004 264.664 158.949V167.234C264.663 167.63 264.506 168.009 264.226 168.289C263.946 168.568 263.567 168.725 263.172 168.726Z" fill="#2F2E41"/>
<path d="M281.462 179.134C281.014 179.212 280.589 179.388 280.216 179.648C279.844 179.909 279.533 180.248 279.306 180.641C279.079 181.035 278.941 181.474 278.902 181.926C278.862 182.379 278.923 182.835 279.079 183.261L273.849 188.069L275.997 191.958L283.287 185.065C283.987 184.756 284.549 184.2 284.866 183.504C285.184 182.808 285.235 182.02 285.01 181.289C284.785 180.558 284.3 179.934 283.646 179.537C282.992 179.14 282.214 178.996 281.462 179.134Z" fill="#FFB8B8"/>
<path d="M265.726 200.992C265.489 200.992 265.253 200.982 265.016 200.962C263.605 200.844 262.247 200.37 261.07 199.584C259.893 198.798 258.935 197.726 258.285 196.469L249.907 180.35C249.358 179.294 249.237 178.067 249.57 176.924C249.904 175.782 250.665 174.811 251.695 174.215C252.726 173.619 253.947 173.443 255.104 173.723C256.261 174.004 257.266 174.72 257.908 175.722L265.638 193.057L276.156 184.515L282.246 186.885L271.961 198.234C271.17 199.101 270.208 199.795 269.134 200.27C268.06 200.744 266.9 200.991 265.726 200.992V200.992Z" fill="#CCCCCC"/>
<path d="M296.718 176.087L287.4 166.773C287.074 166.447 286.632 166.264 286.171 166.264C285.71 166.264 285.267 166.447 284.942 166.773L276.559 175.151C276.233 175.477 276.05 175.919 276.05 176.38C276.05 176.841 276.233 177.282 276.559 177.608L285.265 186.311C285.576 186.621 285.992 186.802 286.431 186.818C286.87 186.834 287.298 186.684 287.631 186.397L296.625 178.63C296.798 178.481 296.94 178.299 297.042 178.095C297.145 177.891 297.206 177.669 297.222 177.442C297.239 177.214 297.211 176.985 297.139 176.769C297.067 176.552 296.953 176.352 296.804 176.179C296.777 176.147 296.748 176.116 296.718 176.087Z" fill="#3F3D56"/>
<path d="M295.399 177.72L285.807 168.133L277.892 176.045L287.111 185.259L295.399 177.72Z" fill="#F2F2F2"/>
<path d="M286.487 180.51C288.638 180.51 290.382 178.767 290.382 176.617C290.382 174.467 288.638 172.724 286.487 172.724C284.336 172.724 282.592 174.467 282.592 176.617C282.592 178.767 284.336 180.51 286.487 180.51Z" fill="#6C63FF"/>
<path opacity="0.1" d="M288.221 179.935C288.872 179.323 289.293 178.506 289.413 177.62C289.533 176.735 289.345 175.835 288.88 175.072C288.414 174.309 287.7 173.729 286.858 173.43C286.016 173.13 285.096 173.13 284.253 173.428C284.708 173.11 285.227 172.892 285.773 172.79C286.319 172.688 286.881 172.705 287.421 172.838C287.961 172.971 288.465 173.218 288.902 173.562C289.338 173.907 289.695 174.341 289.95 174.834C290.204 175.328 290.35 175.871 290.377 176.426C290.405 176.981 290.313 177.535 290.108 178.051C289.903 178.568 289.59 179.035 289.19 179.42C288.79 179.806 288.312 180.101 287.788 180.287C287.94 180.18 288.085 180.062 288.221 179.935Z" fill="black"/>
<path d="M284.572 175.843C284.108 176.28 284.083 177.85 284.792 178.604C285.502 179.359 286.676 179.012 287.14 178.576C287.605 178.139 287.184 177.779 286.474 177.025C285.765 176.27 285.037 175.407 284.572 175.843Z" fill="#F2F2F2"/>
<path d="M288.526 177.834C289.164 177.834 289.68 177.318 289.68 176.68C289.68 176.043 289.164 175.527 288.526 175.527C287.889 175.527 287.372 176.043 287.372 176.68C287.372 177.318 287.889 177.834 288.526 177.834Z" fill="#2F2E41"/>
<path d="M286.452 175.627C287.089 175.627 287.606 175.111 287.606 174.474C287.606 173.837 287.089 173.32 286.452 173.32C285.815 173.32 285.298 173.837 285.298 174.474C285.298 175.111 285.815 175.627 286.452 175.627Z" fill="#2F2E41"/>
<path d="M288.526 176.969C288.686 176.969 288.815 176.84 288.815 176.68C288.815 176.521 288.686 176.392 288.526 176.392C288.367 176.392 288.238 176.521 288.238 176.68C288.238 176.84 288.367 176.969 288.526 176.969Z" fill="#F2F2F2"/>
<path d="M288.65 176.114C288.73 176.114 288.795 176.05 288.795 175.97C288.795 175.891 288.73 175.826 288.65 175.826C288.571 175.826 288.506 175.891 288.506 175.97C288.506 176.05 288.571 176.114 288.65 176.114Z" fill="#F2F2F2"/>
<path d="M286.576 173.908C286.656 173.908 286.72 173.843 286.72 173.764C286.72 173.684 286.656 173.62 286.576 173.62C286.496 173.62 286.432 173.684 286.432 173.764C286.432 173.843 286.496 173.908 286.576 173.908Z" fill="#F2F2F2"/>
<path d="M286.452 174.762C286.611 174.762 286.74 174.633 286.74 174.474C286.74 174.315 286.611 174.185 286.452 174.185C286.292 174.185 286.163 174.315 286.163 174.474C286.163 174.633 286.292 174.762 286.452 174.762Z" fill="#F2F2F2"/>
<path d="M328.245 216.987L330.004 213.325L316.707 204.797L314.11 210.203L328.245 216.987Z" fill="#FFB8B8"/>
<path d="M336.873 207.743C336.27 207.453 335.614 207.284 334.945 207.247C334.276 207.21 333.606 207.306 332.974 207.527C332.342 207.749 331.76 208.094 331.261 208.541C330.762 208.988 330.356 209.529 330.066 210.132L328.879 212.602L327.048 216.413L326.601 217.348L331.349 219.628L337.023 207.816L336.873 207.743Z" fill="#2F2E41"/>
<path d="M327.572 209.625L326.803 211.269L324.883 215.373L324.837 215.475C320.735 215.684 316.361 214.319 312.365 212.413C310.767 211.651 309.208 210.807 307.697 209.884C305.458 208.528 303.469 207.126 301.887 205.937C299.506 204.137 298.051 202.811 298.051 202.811C298.051 202.811 297.613 203.149 296.824 203.726C295.766 204.498 294.078 205.701 291.949 207.107C291.137 207.647 290.266 208.21 289.336 208.797C282.486 213.102 272.744 218.345 264.457 219.452C249.903 221.398 253.329 201.986 253.329 201.986L264.911 195.974L269.829 196.971L275.303 198.078L277.243 198.473C277.243 198.473 277.611 198.333 278.245 198.091C280.284 197.313 285.075 195.473 289.214 193.829C291.346 192.981 293.302 192.182 294.619 191.609C299.281 189.57 304.5 194.509 304.5 194.509L327.572 209.625Z" fill="#2F2E41"/>
<path d="M232.134 219.916C232.577 219.814 232.993 219.617 233.351 219.337C233.709 219.058 234.002 218.703 234.209 218.299C234.415 217.894 234.53 217.449 234.546 216.995C234.562 216.541 234.478 216.089 234.3 215.67L239.274 210.599L236.928 206.826L230.004 214.087C229.321 214.432 228.789 215.016 228.508 215.727C228.227 216.438 228.216 217.228 228.479 217.947C228.741 218.665 229.258 219.263 229.932 219.626C230.606 219.989 231.389 220.092 232.134 219.916L232.134 219.916Z" fill="#FFB8B8"/>
<path d="M256.278 169.096C260.561 169.096 264.033 165.625 264.033 161.345C264.033 157.064 260.561 153.594 256.278 153.594C251.996 153.594 248.524 157.064 248.524 161.345C248.524 165.625 251.996 169.096 256.278 169.096Z" fill="#FFB8B8"/>
<path d="M246.19 182.861L252.945 202.003L252.904 202.07C251.965 203.623 251.658 204.875 252.017 205.691C252.111 205.899 252.249 206.084 252.422 206.233C252.595 206.382 252.798 206.491 253.017 206.554L269.003 195.386L268.443 190.91L268.475 190.86C270.02 188.389 270.52 186.151 269.962 184.209C269.237 181.689 266.936 180.545 266.913 180.533L266.857 180.489L258.884 170.79L248.226 172.683L246.19 182.861Z" fill="#CCCCCC"/>
<path d="M235.917 216.46L231.392 210.893L242.301 192.893L247.387 177.179L247.545 177.23L247.387 177.179C247.665 176.32 248.124 175.531 248.732 174.865C249.341 174.199 250.086 173.671 250.916 173.316C251.746 172.962 252.642 172.79 253.545 172.811C254.447 172.832 255.335 173.046 256.147 173.44C256.96 173.833 257.679 174.395 258.255 175.089C258.832 175.784 259.253 176.593 259.49 177.464C259.727 178.334 259.775 179.246 259.63 180.136C259.485 181.027 259.15 181.876 258.649 182.626L249.312 196.609L235.917 216.46Z" fill="#CCCCCC"/>
<path d="M267.292 159.777H255.532L255.411 158.09L254.808 159.777H252.997L252.758 156.432L251.563 159.777H248.059V159.611C248.062 157.283 248.989 155.05 250.636 153.404C252.283 151.757 254.517 150.831 256.846 150.828H258.505C260.834 150.831 263.068 151.757 264.715 153.404C266.362 155.05 267.289 157.283 267.292 159.611V159.777Z" fill="#2F2E41"/>
<path d="M255.435 170.273C255.347 170.272 255.258 170.265 255.171 170.249L246.56 168.731V154.505H256.039L255.805 154.779C252.539 158.585 254.999 164.757 256.756 168.097C256.886 168.342 256.944 168.618 256.923 168.894C256.902 169.17 256.804 169.435 256.64 169.658C256.502 169.848 256.321 170.003 256.112 170.11C255.902 170.217 255.67 170.272 255.435 170.273V170.273Z" fill="#2F2E41"/>
<defs>
<clipPath id="clip0">
<rect width="343" height="295.923" fill="white" transform="translate(723 253)"/>
</clipPath>
</defs>
</svg>
