<svg width="471" height="523" viewBox="0 0 471 523" fill="none" xmlns="http://www.w3.org/2000/svg">
<path d="M454 523H17C12.4929 522.995 8.17182 521.202 4.9848 518.015C1.79778 514.828 0.00507123 510.507 0 506V17C0.00507387 12.4929 1.79778 8.17181 4.9848 4.98479C8.17182 1.79777 12.4929 0.00507387 17 0H454C458.507 0.00507387 462.828 1.79777 466.015 4.98479C469.202 8.17181 470.995 12.4929 471 17V506C470.995 510.507 469.202 514.828 466.015 518.015C462.828 521.202 458.507 522.995 454 523V523ZM17 2C13.0231 2.0045 9.21045 3.58629 6.39838 6.39836C3.58631 9.21043 2.0045 13.0231 2 17V506C2.0045 509.977 3.58631 513.79 6.39838 516.602C9.21045 519.414 13.0231 520.996 17 521H454C457.977 520.996 461.79 519.414 464.602 516.602C467.414 513.79 468.996 509.977 469 506V17C468.996 13.0231 467.414 9.21043 464.602 6.39836C461.79 3.58629 457.977 2.0045 454 2H17Z" fill="#3F3D56"/>
<path d="M470 41.5903H1V43.5903H470V41.5903Z" fill="#3F3D56"/>
<path d="M24 30C28.4183 30 32 26.4183 32 22C32 17.5817 28.4183 14 24 14C19.5817 14 16 17.5817 16 22C16 26.4183 19.5817 30 24 30Z" fill="#6C63FF"/>
<path d="M49 30C53.4183 30 57 26.4183 57 22C57 17.5817 53.4183 14 49 14C44.5817 14 41 17.5817 41 22C41 26.4183 44.5817 30 49 30Z" fill="#6C63FF"/>
<path d="M74 30C78.4183 30 82 26.4183 82 22C82 17.5817 78.4183 14 74 14C69.5817 14 66 17.5817 66 22C66 26.4183 69.5817 30 74 30Z" fill="#6C63FF"/>
<path d="M348.654 92H36.6536C33.2057 92 29.8992 90.6304 27.4612 88.1924C25.0232 85.7544 23.6536 82.4478 23.6536 79C23.6536 75.5522 25.0232 72.2456 27.4612 69.8076C29.8992 67.3696 33.2057 66 36.6536 66H348.654C352.101 66 355.408 67.3696 357.846 69.8076C360.284 72.2456 361.654 75.5522 361.654 79C361.654 82.4478 360.284 85.7544 357.846 88.1924C355.408 90.6304 352.101 92 348.654 92V92ZM36.6536 68C33.7362 68 30.9383 69.1589 28.8754 71.2218C26.8125 73.2847 25.6536 76.0826 25.6536 79C25.6536 81.9174 26.8125 84.7153 28.8754 86.7782C30.9383 88.8411 33.7362 90 36.6536 90H348.654C351.571 90 354.369 88.8411 356.432 86.7782C358.495 84.7153 359.654 81.9174 359.654 79C359.654 76.0826 358.495 73.2847 356.432 71.2218C354.369 69.1589 351.571 68 348.654 68H36.6536Z" fill="#3F3D56"/>
<path d="M444.154 102H401.154C398.635 101.997 396.22 100.995 394.439 99.2144C392.658 97.4334 391.656 95.0187 391.654 92.5V65.5C391.656 62.9813 392.658 60.5666 394.439 58.7856C396.22 57.0047 398.635 56.0029 401.154 56H444.154C446.672 56.0029 449.087 57.0047 450.868 58.7856C452.649 60.5666 453.651 62.9813 453.654 65.5V92.5C453.651 95.0187 452.649 97.4334 450.868 99.2144C449.087 100.995 446.672 101.997 444.154 102V102ZM401.154 58C399.165 58.0022 397.259 58.7931 395.853 60.1991C394.447 61.6052 393.656 63.5116 393.654 65.5V92.5C393.656 94.4884 394.447 96.3948 395.853 97.8008C397.259 99.2069 399.165 99.9978 401.154 100H444.154C446.142 99.9978 448.048 99.2069 449.454 97.8008C450.86 96.3948 451.651 94.4884 451.654 92.5V65.5C451.651 63.5116 450.86 61.6052 449.454 60.1991C448.048 58.7931 446.142 58.0022 444.154 58H401.154Z" fill="#CCCCCC"/>
<path d="M422.653 93.7385L420.338 91.6498C412.115 84.1004 406.687 79.2005 406.687 73.0968C406.667 71.9354 406.879 70.7818 407.313 69.7042C407.746 68.6266 408.391 67.6469 409.21 66.8231C410.029 65.9994 411.005 65.3482 412.08 64.9083C413.155 64.4683 414.307 64.2485 415.468 64.2618C416.839 64.2691 418.192 64.5746 419.432 65.1572C420.673 65.7397 421.772 66.5853 422.653 67.6353C423.535 66.5853 424.634 65.7397 425.874 65.1572C427.115 64.5746 428.468 64.2691 429.838 64.2618C431 64.2485 432.152 64.4683 433.227 64.9083C434.302 65.3482 435.278 65.9994 436.097 66.8231C436.915 67.6469 437.561 68.6266 437.994 69.7042C438.428 70.7818 438.64 71.9354 438.62 73.0968C438.62 79.2006 433.191 84.1005 424.969 91.6498L422.653 93.7385Z" fill="#6C63FF"/>
</svg>
