<svg id="laptop" style="stroke: black; stroke-width: 0.5px;" width="570" height="331" viewBox="0 0 570 331" fill="none" xmlns="http://www.w3.org/2000/svg">
<path d="M525.848 0H34.1519C32.3747 -2.02088e-06 30.6149 0.350244 28.9729 1.03074C27.3309 1.71124 25.839 2.70865 24.5823 3.96605C23.3256 5.22345 22.3287 6.7162 21.6486 8.35907C20.9685 10.0019 20.6184 11.7627 20.6184 13.541V287.656C20.6184 289.434 20.9685 291.195 21.6486 292.838C22.3287 294.48 23.3256 295.973 24.5823 297.231C25.839 298.488 27.3309 299.485 28.9729 300.166C30.6149 300.846 32.3747 301.197 34.1519 301.197H525.848C529.437 301.197 532.879 299.77 535.417 297.231C537.955 294.691 539.381 291.247 539.381 287.656V13.541C539.381 9.94968 537.955 6.50549 535.417 3.96606C532.879 1.42664 529.437 2.04068e-06 525.848 0Z" fill="#3F3D56"/>
<path d="M521.237 23.9307H38.7629V296.245H521.237V23.9307Z" fill="white"/>
<path d="M279.587 16.5039C282.32 16.5039 284.536 14.2872 284.536 11.5527C284.536 8.81828 282.32 6.60156 279.587 6.60156C276.854 6.60156 274.639 8.81828 274.639 11.5527C274.639 14.2872 276.854 16.5039 279.587 16.5039Z" fill="white"/>
<path d="M383.257 296.246H38.7627V23.9312L383.257 296.246Z" fill="#F2F2F2"/>
<path d="M103 276C122.33 276 138 260.33 138 241C138 221.67 122.33 206 103 206C83.67 206 68 221.67 68 241C68 260.33 83.67 276 103 276Z" fill="#6C63FF"/>
<path d="M487.102 40.2275H468.267V59.0725H487.102V40.2275Z" fill="#6C63FF"/>
<path d="M495.846 67.8219H472.976V44.9387H495.846V67.8219ZM473.97 66.827H494.852V45.9337H473.97L473.97 66.827Z" fill="#CCCCCC"/>
<path d="M552.928 291.294H505.842V287.9C505.842 287.811 505.824 287.724 505.791 287.642C505.757 287.561 505.707 287.486 505.645 287.424C505.582 287.361 505.508 287.312 505.427 287.278C505.345 287.244 505.257 287.227 505.169 287.227H489.025C488.937 287.227 488.849 287.244 488.768 287.278C488.686 287.312 488.612 287.361 488.55 287.424C488.487 287.486 488.438 287.561 488.404 287.642C488.37 287.724 488.353 287.811 488.353 287.9V291.294H478.263V287.9C478.263 287.811 478.245 287.724 478.211 287.642C478.178 287.561 478.128 287.486 478.066 287.424C478.003 287.361 477.929 287.312 477.847 287.278C477.766 287.244 477.678 287.227 477.59 287.227H461.446C461.358 287.227 461.27 287.244 461.189 287.278C461.107 287.312 461.033 287.361 460.971 287.424C460.908 287.486 460.858 287.561 460.825 287.642C460.791 287.724 460.774 287.811 460.774 287.9V291.294H450.684V287.9C450.684 287.811 450.666 287.724 450.632 287.642C450.599 287.561 450.549 287.486 450.487 287.424C450.424 287.361 450.35 287.312 450.268 287.278C450.187 287.244 450.099 287.227 450.011 287.227H433.867C433.779 287.227 433.691 287.244 433.61 287.278C433.528 287.312 433.454 287.361 433.391 287.424C433.329 287.486 433.279 287.561 433.246 287.642C433.212 287.724 433.194 287.811 433.194 287.9V291.294H423.104V287.9C423.104 287.811 423.087 287.724 423.053 287.642C423.019 287.561 422.97 287.486 422.907 287.424C422.845 287.361 422.771 287.312 422.689 287.278C422.608 287.244 422.52 287.227 422.432 287.227H406.288C406.2 287.227 406.112 287.244 406.03 287.278C405.949 287.312 405.875 287.361 405.812 287.424C405.75 287.486 405.7 287.561 405.666 287.642C405.633 287.724 405.615 287.811 405.615 287.9V291.294H395.525V287.9C395.525 287.811 395.508 287.724 395.474 287.642C395.44 287.561 395.391 287.486 395.328 287.424C395.266 287.361 395.192 287.312 395.11 287.278C395.028 287.244 394.941 287.227 394.853 287.227H378.709C378.62 287.227 378.533 287.244 378.451 287.278C378.37 287.312 378.296 287.361 378.233 287.424C378.171 287.486 378.121 287.561 378.087 287.642C378.053 287.724 378.036 287.811 378.036 287.9V291.294H367.946V287.9C367.946 287.811 367.929 287.724 367.895 287.642C367.861 287.561 367.812 287.486 367.749 287.424C367.687 287.361 367.613 287.312 367.531 287.278C367.449 287.244 367.362 287.227 367.273 287.227H351.13C351.041 287.227 350.954 287.244 350.872 287.278C350.791 287.312 350.716 287.361 350.654 287.424C350.591 287.486 350.542 287.561 350.508 287.642C350.474 287.724 350.457 287.811 350.457 287.9V291.294H340.367V287.9C340.367 287.811 340.35 287.724 340.316 287.642C340.282 287.561 340.232 287.486 340.17 287.424C340.108 287.361 340.033 287.312 339.952 287.278C339.87 287.244 339.783 287.227 339.694 287.227H213.234C213.146 287.227 213.058 287.244 212.976 287.278C212.895 287.312 212.821 287.361 212.758 287.424C212.696 287.486 212.646 287.561 212.612 287.642C212.579 287.724 212.561 287.811 212.561 287.9V291.294H202.471V287.9C202.471 287.811 202.454 287.724 202.42 287.642C202.386 287.561 202.337 287.486 202.274 287.424C202.212 287.361 202.138 287.312 202.056 287.278C201.974 287.244 201.887 287.227 201.799 287.227H185.655C185.566 287.227 185.479 287.244 185.397 287.278C185.316 287.312 185.242 287.361 185.179 287.424C185.117 287.486 185.067 287.561 185.033 287.642C184.999 287.724 184.982 287.811 184.982 287.9V291.294H174.892V287.9C174.892 287.811 174.875 287.724 174.841 287.642C174.807 287.561 174.758 287.486 174.695 287.424C174.633 287.361 174.559 287.312 174.477 287.278C174.395 287.244 174.308 287.227 174.22 287.227H158.076C157.987 287.227 157.9 287.244 157.818 287.278C157.737 287.312 157.662 287.361 157.6 287.424C157.537 287.486 157.488 287.561 157.454 287.642C157.42 287.724 157.403 287.811 157.403 287.9V291.294H147.313V287.9C147.313 287.811 147.296 287.724 147.262 287.642C147.228 287.561 147.178 287.486 147.116 287.424C147.053 287.361 146.979 287.312 146.898 287.278C146.816 287.244 146.729 287.227 146.64 287.227H130.496C130.408 287.227 130.321 287.244 130.239 287.278C130.157 287.312 130.083 287.361 130.021 287.424C129.958 287.486 129.909 287.561 129.875 287.642C129.841 287.724 129.824 287.811 129.824 287.9V291.294H119.734V287.9C119.734 287.811 119.716 287.724 119.683 287.642C119.649 287.561 119.599 287.486 119.537 287.424C119.474 287.361 119.4 287.312 119.319 287.278C119.237 287.244 119.15 287.227 119.061 287.227H102.917C102.829 287.227 102.742 287.244 102.66 287.278C102.578 287.312 102.504 287.361 102.442 287.424C102.379 287.486 102.33 287.561 102.296 287.642C102.262 287.724 102.245 287.811 102.245 287.9V291.294H92.1547V287.9C92.1547 287.811 92.1373 287.724 92.1035 287.642C92.0697 287.561 92.0201 287.486 91.9577 287.424C91.8952 287.361 91.8211 287.312 91.7395 287.278C91.6579 287.244 91.5704 287.227 91.482 287.227H75.3381C75.1597 287.227 74.9886 287.298 74.8625 287.424C74.7364 287.55 74.6655 287.721 74.6655 287.9V291.294H64.5755V287.9C64.5755 287.811 64.5582 287.724 64.5244 287.642C64.4906 287.561 64.441 287.486 64.3785 287.424C64.3161 287.361 64.242 287.312 64.1603 287.278C64.0787 287.244 63.9912 287.227 63.9029 287.227H47.759C47.5806 287.227 47.4095 287.298 47.2834 287.424C47.1572 287.55 47.0864 287.721 47.0864 287.9V291.294H16.1439C11.8622 291.294 7.756 292.996 4.72844 296.025C1.70088 299.055 0 303.163 0 307.447V314.751C1.01978e-05 319.035 1.70088 323.143 4.72844 326.173C7.756 329.202 11.8622 330.904 16.1439 330.904H552.928C557.21 330.904 561.316 329.202 564.344 326.173C567.371 323.143 569.072 319.035 569.072 314.751V307.447C569.072 305.326 568.654 303.225 567.843 301.266C567.032 299.306 565.843 297.525 564.344 296.025C562.844 294.525 561.065 293.336 559.106 292.524C557.148 291.712 555.048 291.294 552.928 291.294Z" fill="#3F3D56"/>
<path d="M106.909 65.2021L115.663 56.4755L106.909 47.7487L109.578 45.0889L121 56.4755L109.578 67.8619L106.909 65.2021Z" fill="#6C63FF"/>
<path d="M81.9124 57.0981H85.4706V53.5398H81.9124L81.9124 57.0981ZM99.7749 53.5398H96.2167V57.0981H99.7749V53.5398ZM89.0645 57.0981H92.6228V53.5398H89.0645V57.0981Z" fill="#6C63FF"/>
<path d="M77.0908 65.1131L68.3285 56.3865L77.0819 47.6598L74.4132 45L63 56.3865L74.4221 67.7729L77.0908 65.1131Z" fill="#6C63FF"/>
</svg>
